<mxfile host="Electron" agent="Mozilla/5.0 (Windows NT 10.0; Win64; x64) AppleWebKit/537.36 (KHTML, like Gecko) draw.io/28.2.8 Chrome/140.0.7339.240 Electron/38.4.0 Safari/537.36" version="28.2.8">
  <diagram name="PÃ¡gina-1" id="0NBmmQ6VbOegYHe6c8OG">
    <mxGraphModel dx="2605" dy="1565" grid="1" gridSize="10" guides="1" tooltips="1" connect="1" arrows="1" fold="1" page="1" pageScale="1" pageWidth="16000" pageHeight="12000" math="0" shadow="0">
      <root>
        <mxCell id="0" />
        <mxCell id="1" parent="0" />
        <mxCell id="AqDaINTAuV95AdL_ioeB-1" value="" style="rounded=0;whiteSpace=wrap;html=1;" parent="1" vertex="1">
          <mxGeometry x="1060" y="442.5" width="120" height="50" as="geometry" />
        </mxCell>
        <mxCell id="AqDaINTAuV95AdL_ioeB-2" value="Users" style="text;html=1;align=center;verticalAlign=middle;whiteSpace=wrap;rounded=0;fontSize=15;" parent="1" vertex="1">
          <mxGeometry x="1090" y="452.5" width="60" height="30" as="geometry" />
        </mxCell>
        <mxCell id="AqDaINTAuV95AdL_ioeB-27" value="" style="group" parent="1" vertex="1" connectable="0">
          <mxGeometry x="1245" y="380" width="80" height="40" as="geometry" />
        </mxCell>
        <mxCell id="AqDaINTAuV95AdL_ioeB-3" value="" style="ellipse;whiteSpace=wrap;html=1;" parent="AqDaINTAuV95AdL_ioeB-27" vertex="1">
          <mxGeometry width="80" height="40" as="geometry" />
        </mxCell>
        <mxCell id="AqDaINTAuV95AdL_ioeB-4" value="Username" style="text;html=1;align=center;verticalAlign=middle;whiteSpace=wrap;rounded=0;" parent="AqDaINTAuV95AdL_ioeB-27" vertex="1">
          <mxGeometry x="10" y="5" width="60" height="30" as="geometry" />
        </mxCell>
        <mxCell id="AqDaINTAuV95AdL_ioeB-28" value="" style="group" parent="1" vertex="1" connectable="0">
          <mxGeometry x="1200" y="332.5" width="80" height="40" as="geometry" />
        </mxCell>
        <mxCell id="AqDaINTAuV95AdL_ioeB-17" value="" style="ellipse;whiteSpace=wrap;html=1;" parent="AqDaINTAuV95AdL_ioeB-28" vertex="1">
          <mxGeometry width="80" height="40" as="geometry" />
        </mxCell>
        <mxCell id="AqDaINTAuV95AdL_ioeB-18" value="ID" style="text;html=1;align=center;verticalAlign=middle;whiteSpace=wrap;rounded=0;" parent="AqDaINTAuV95AdL_ioeB-28" vertex="1">
          <mxGeometry x="10" y="5" width="60" height="30" as="geometry" />
        </mxCell>
        <mxCell id="AqDaINTAuV95AdL_ioeB-29" value="" style="group" parent="1" vertex="1" connectable="0">
          <mxGeometry x="1130" y="300" width="80" height="40" as="geometry" />
        </mxCell>
        <mxCell id="AqDaINTAuV95AdL_ioeB-13" value="" style="ellipse;whiteSpace=wrap;html=1;" parent="AqDaINTAuV95AdL_ioeB-29" vertex="1">
          <mxGeometry width="80" height="40" as="geometry" />
        </mxCell>
        <mxCell id="AqDaINTAuV95AdL_ioeB-14" value="Password" style="text;html=1;align=center;verticalAlign=middle;whiteSpace=wrap;rounded=0;" parent="AqDaINTAuV95AdL_ioeB-29" vertex="1">
          <mxGeometry x="10" y="5" width="60" height="30" as="geometry" />
        </mxCell>
        <mxCell id="AqDaINTAuV95AdL_ioeB-30" value="" style="group" parent="1" vertex="1" connectable="0">
          <mxGeometry x="950" y="305" width="80" height="40" as="geometry" />
        </mxCell>
        <mxCell id="AqDaINTAuV95AdL_ioeB-11" value="" style="ellipse;whiteSpace=wrap;html=1;" parent="AqDaINTAuV95AdL_ioeB-30" vertex="1">
          <mxGeometry width="80" height="40" as="geometry" />
        </mxCell>
        <mxCell id="AqDaINTAuV95AdL_ioeB-12" value="Name" style="text;html=1;align=center;verticalAlign=middle;whiteSpace=wrap;rounded=0;" parent="AqDaINTAuV95AdL_ioeB-30" vertex="1">
          <mxGeometry x="10" y="5" width="60" height="30" as="geometry" />
        </mxCell>
        <mxCell id="AqDaINTAuV95AdL_ioeB-31" value="" style="group" parent="1" vertex="1" connectable="0">
          <mxGeometry x="1000" y="582.5" width="80" height="40" as="geometry" />
        </mxCell>
        <mxCell id="AqDaINTAuV95AdL_ioeB-19" value="" style="ellipse;whiteSpace=wrap;html=1;" parent="AqDaINTAuV95AdL_ioeB-31" vertex="1">
          <mxGeometry width="80" height="40" as="geometry" />
        </mxCell>
        <mxCell id="AqDaINTAuV95AdL_ioeB-20" value="Phone" style="text;html=1;align=center;verticalAlign=middle;whiteSpace=wrap;rounded=0;" parent="AqDaINTAuV95AdL_ioeB-31" vertex="1">
          <mxGeometry x="10" y="5" width="60" height="30" as="geometry" />
        </mxCell>
        <mxCell id="AqDaINTAuV95AdL_ioeB-32" value="" style="group" parent="1" vertex="1" connectable="0">
          <mxGeometry x="1220" y="582.5" width="80" height="40" as="geometry" />
        </mxCell>
        <mxCell id="AqDaINTAuV95AdL_ioeB-7" value="" style="ellipse;whiteSpace=wrap;html=1;" parent="AqDaINTAuV95AdL_ioeB-32" vertex="1">
          <mxGeometry width="80" height="40" as="geometry" />
        </mxCell>
        <mxCell id="AqDaINTAuV95AdL_ioeB-8" value="Username" style="text;html=1;align=center;verticalAlign=middle;whiteSpace=wrap;rounded=0;" parent="AqDaINTAuV95AdL_ioeB-32" vertex="1">
          <mxGeometry x="10" y="5" width="60" height="30" as="geometry" />
        </mxCell>
        <mxCell id="AqDaINTAuV95AdL_ioeB-9" value="" style="ellipse;whiteSpace=wrap;html=1;" parent="AqDaINTAuV95AdL_ioeB-32" vertex="1">
          <mxGeometry width="80" height="40" as="geometry" />
        </mxCell>
        <mxCell id="AqDaINTAuV95AdL_ioeB-10" value="Email" style="text;html=1;align=center;verticalAlign=middle;whiteSpace=wrap;rounded=0;" parent="AqDaINTAuV95AdL_ioeB-32" vertex="1">
          <mxGeometry x="10" y="5" width="60" height="30" as="geometry" />
        </mxCell>
        <mxCell id="AqDaINTAuV95AdL_ioeB-33" value="" style="group" parent="1" vertex="1" connectable="0">
          <mxGeometry x="1100" y="592.5" width="80" height="40" as="geometry" />
        </mxCell>
        <mxCell id="AqDaINTAuV95AdL_ioeB-5" value="" style="ellipse;whiteSpace=wrap;html=1;" parent="AqDaINTAuV95AdL_ioeB-33" vertex="1">
          <mxGeometry width="80" height="40" as="geometry" />
        </mxCell>
        <mxCell id="AqDaINTAuV95AdL_ioeB-6" value="Surname" style="text;html=1;align=center;verticalAlign=middle;whiteSpace=wrap;rounded=0;" parent="AqDaINTAuV95AdL_ioeB-33" vertex="1">
          <mxGeometry x="10" y="5" width="60" height="30" as="geometry" />
        </mxCell>
        <mxCell id="AqDaINTAuV95AdL_ioeB-34" value="" style="group" parent="1" vertex="1" connectable="0">
          <mxGeometry x="860" y="340" width="80" height="40" as="geometry" />
        </mxCell>
        <mxCell id="AqDaINTAuV95AdL_ioeB-15" value="" style="ellipse;whiteSpace=wrap;html=1;" parent="AqDaINTAuV95AdL_ioeB-34" vertex="1">
          <mxGeometry width="80" height="40" as="geometry" />
        </mxCell>
        <mxCell id="AqDaINTAuV95AdL_ioeB-16" value="PersonID" style="text;html=1;align=center;verticalAlign=middle;whiteSpace=wrap;rounded=0;" parent="AqDaINTAuV95AdL_ioeB-34" vertex="1">
          <mxGeometry x="10" y="5" width="60" height="30" as="geometry" />
        </mxCell>
        <mxCell id="AqDaINTAuV95AdL_ioeB-35" value="" style="group" parent="1" vertex="1" connectable="0">
          <mxGeometry x="910" y="570" width="80" height="40" as="geometry" />
        </mxCell>
        <mxCell id="AqDaINTAuV95AdL_ioeB-21" value="" style="ellipse;whiteSpace=wrap;html=1;" parent="AqDaINTAuV95AdL_ioeB-35" vertex="1">
          <mxGeometry width="80" height="40" as="geometry" />
        </mxCell>
        <mxCell id="AqDaINTAuV95AdL_ioeB-22" value="IsActive" style="text;html=1;align=center;verticalAlign=middle;whiteSpace=wrap;rounded=0;" parent="AqDaINTAuV95AdL_ioeB-35" vertex="1">
          <mxGeometry x="10" y="5" width="60" height="30" as="geometry" />
        </mxCell>
        <mxCell id="AqDaINTAuV95AdL_ioeB-36" value="" style="group" parent="1" vertex="1" connectable="0">
          <mxGeometry x="850" y="420" width="80" height="40" as="geometry" />
        </mxCell>
        <mxCell id="AqDaINTAuV95AdL_ioeB-23" value="" style="ellipse;whiteSpace=wrap;html=1;" parent="AqDaINTAuV95AdL_ioeB-36" vertex="1">
          <mxGeometry width="80" height="40" as="geometry" />
        </mxCell>
        <mxCell id="AqDaINTAuV95AdL_ioeB-24" value="ProfilePicture" style="text;html=1;align=center;verticalAlign=middle;whiteSpace=wrap;rounded=0;" parent="AqDaINTAuV95AdL_ioeB-36" vertex="1">
          <mxGeometry x="10" y="5" width="60" height="30" as="geometry" />
        </mxCell>
        <mxCell id="AqDaINTAuV95AdL_ioeB-43" value="" style="endArrow=classic;html=1;rounded=0;exitX=0.75;exitY=0;exitDx=0;exitDy=0;entryX=0.41;entryY=1.005;entryDx=0;entryDy=0;entryPerimeter=0;" parent="1" source="AqDaINTAuV95AdL_ioeB-1" target="AqDaINTAuV95AdL_ioeB-3" edge="1">
          <mxGeometry width="50" height="50" relative="1" as="geometry">
            <mxPoint x="1300" y="552.5" as="sourcePoint" />
            <mxPoint x="1350" y="502.5" as="targetPoint" />
          </mxGeometry>
        </mxCell>
        <mxCell id="AqDaINTAuV95AdL_ioeB-44" value="" style="endArrow=classic;html=1;rounded=0;exitX=0.5;exitY=0;exitDx=0;exitDy=0;entryX=0.5;entryY=1;entryDx=0;entryDy=0;" parent="1" source="AqDaINTAuV95AdL_ioeB-1" target="AqDaINTAuV95AdL_ioeB-18" edge="1">
          <mxGeometry width="50" height="50" relative="1" as="geometry">
            <mxPoint x="1100" y="432.5" as="sourcePoint" />
            <mxPoint x="1150" y="382.5" as="targetPoint" />
          </mxGeometry>
        </mxCell>
        <mxCell id="AqDaINTAuV95AdL_ioeB-45" value="" style="endArrow=classic;html=1;rounded=0;entryX=0.5;entryY=1;entryDx=0;entryDy=0;exitX=0.25;exitY=0;exitDx=0;exitDy=0;" parent="1" source="AqDaINTAuV95AdL_ioeB-1" target="AqDaINTAuV95AdL_ioeB-13" edge="1">
          <mxGeometry width="50" height="50" relative="1" as="geometry">
            <mxPoint x="1080" y="452.5" as="sourcePoint" />
            <mxPoint x="1130" y="402.5" as="targetPoint" />
          </mxGeometry>
        </mxCell>
        <mxCell id="AqDaINTAuV95AdL_ioeB-46" value="" style="endArrow=classic;html=1;rounded=0;entryX=0.75;entryY=1;entryDx=0;entryDy=0;exitX=0.25;exitY=0;exitDx=0;exitDy=0;" parent="1" source="AqDaINTAuV95AdL_ioeB-1" target="AqDaINTAuV95AdL_ioeB-12" edge="1">
          <mxGeometry width="50" height="50" relative="1" as="geometry">
            <mxPoint x="1040" y="462.5" as="sourcePoint" />
            <mxPoint x="1090" y="412.5" as="targetPoint" />
          </mxGeometry>
        </mxCell>
        <mxCell id="AqDaINTAuV95AdL_ioeB-47" value="" style="endArrow=classic;html=1;rounded=0;entryX=1;entryY=0.75;entryDx=0;entryDy=0;entryPerimeter=0;exitX=0;exitY=0.25;exitDx=0;exitDy=0;" parent="1" source="AqDaINTAuV95AdL_ioeB-1" target="AqDaINTAuV95AdL_ioeB-15" edge="1">
          <mxGeometry width="50" height="50" relative="1" as="geometry">
            <mxPoint x="990" y="492.5" as="sourcePoint" />
            <mxPoint x="1040" y="442.5" as="targetPoint" />
          </mxGeometry>
        </mxCell>
        <mxCell id="AqDaINTAuV95AdL_ioeB-48" value="" style="endArrow=classic;html=1;rounded=0;exitX=0;exitY=0.5;exitDx=0;exitDy=0;entryX=1;entryY=0.5;entryDx=0;entryDy=0;" parent="1" source="AqDaINTAuV95AdL_ioeB-1" target="AqDaINTAuV95AdL_ioeB-23" edge="1">
          <mxGeometry width="50" height="50" relative="1" as="geometry">
            <mxPoint x="990" y="532.5" as="sourcePoint" />
            <mxPoint x="980" y="482.5" as="targetPoint" />
          </mxGeometry>
        </mxCell>
        <mxCell id="AqDaINTAuV95AdL_ioeB-50" value="" style="endArrow=classic;html=1;rounded=0;exitX=0.25;exitY=1;exitDx=0;exitDy=0;entryX=1;entryY=0;entryDx=0;entryDy=0;" parent="1" source="AqDaINTAuV95AdL_ioeB-1" target="AqDaINTAuV95AdL_ioeB-22" edge="1">
          <mxGeometry width="50" height="50" relative="1" as="geometry">
            <mxPoint x="1060" y="582.5" as="sourcePoint" />
            <mxPoint x="1040" y="582.5" as="targetPoint" />
          </mxGeometry>
        </mxCell>
        <mxCell id="AqDaINTAuV95AdL_ioeB-51" value="" style="endArrow=classic;html=1;rounded=0;exitX=0.5;exitY=1;exitDx=0;exitDy=0;entryX=0.5;entryY=0;entryDx=0;entryDy=0;" parent="1" source="AqDaINTAuV95AdL_ioeB-1" target="AqDaINTAuV95AdL_ioeB-19" edge="1">
          <mxGeometry width="50" height="50" relative="1" as="geometry">
            <mxPoint x="1110" y="562.5" as="sourcePoint" />
            <mxPoint x="1160" y="512.5" as="targetPoint" />
          </mxGeometry>
        </mxCell>
        <mxCell id="AqDaINTAuV95AdL_ioeB-52" value="" style="endArrow=classic;html=1;rounded=0;entryX=0.375;entryY=0;entryDx=0;entryDy=0;entryPerimeter=0;exitX=0.75;exitY=1;exitDx=0;exitDy=0;" parent="1" source="AqDaINTAuV95AdL_ioeB-1" target="AqDaINTAuV95AdL_ioeB-5" edge="1">
          <mxGeometry width="50" height="50" relative="1" as="geometry">
            <mxPoint x="1120" y="492.5" as="sourcePoint" />
            <mxPoint x="1190" y="512.5" as="targetPoint" />
          </mxGeometry>
        </mxCell>
        <mxCell id="AqDaINTAuV95AdL_ioeB-53" value="" style="endArrow=classic;html=1;rounded=0;exitX=0.88;exitY=1.004;exitDx=0;exitDy=0;entryX=0;entryY=0;entryDx=0;entryDy=0;exitPerimeter=0;" parent="1" source="AqDaINTAuV95AdL_ioeB-1" target="AqDaINTAuV95AdL_ioeB-10" edge="1">
          <mxGeometry width="50" height="50" relative="1" as="geometry">
            <mxPoint x="1200" y="572.5" as="sourcePoint" />
            <mxPoint x="1250" y="522.5" as="targetPoint" />
          </mxGeometry>
        </mxCell>
        <mxCell id="AqDaINTAuV95AdL_ioeB-54" value="" style="rounded=0;whiteSpace=wrap;html=1;" parent="1" vertex="1">
          <mxGeometry x="640" y="255" width="110" height="45" as="geometry" />
        </mxCell>
        <mxCell id="AqDaINTAuV95AdL_ioeB-55" value="Roles" style="text;html=1;align=center;verticalAlign=middle;whiteSpace=wrap;rounded=0;fontSize=15;" parent="1" vertex="1">
          <mxGeometry x="665" y="262.5" width="60" height="30" as="geometry" />
        </mxCell>
        <mxCell id="AqDaINTAuV95AdL_ioeB-58" value="" style="group" parent="1" vertex="1" connectable="0">
          <mxGeometry x="655" y="140" width="80" height="40" as="geometry" />
        </mxCell>
        <mxCell id="AqDaINTAuV95AdL_ioeB-59" value="" style="ellipse;whiteSpace=wrap;html=1;" parent="AqDaINTAuV95AdL_ioeB-58" vertex="1">
          <mxGeometry width="80" height="40" as="geometry" />
        </mxCell>
        <mxCell id="AqDaINTAuV95AdL_ioeB-60" value="Name" style="text;html=1;align=center;verticalAlign=middle;whiteSpace=wrap;rounded=0;" parent="AqDaINTAuV95AdL_ioeB-58" vertex="1">
          <mxGeometry x="10" y="5" width="60" height="30" as="geometry" />
        </mxCell>
        <mxCell id="AqDaINTAuV95AdL_ioeB-61" value="" style="group" parent="1" vertex="1" connectable="0">
          <mxGeometry x="655" y="380" width="80" height="40" as="geometry" />
        </mxCell>
        <mxCell id="AqDaINTAuV95AdL_ioeB-62" value="" style="ellipse;whiteSpace=wrap;html=1;" parent="AqDaINTAuV95AdL_ioeB-61" vertex="1">
          <mxGeometry width="80" height="40" as="geometry" />
        </mxCell>
        <mxCell id="AqDaINTAuV95AdL_ioeB-63" value="ID" style="text;html=1;align=center;verticalAlign=middle;whiteSpace=wrap;rounded=0;" parent="AqDaINTAuV95AdL_ioeB-61" vertex="1">
          <mxGeometry x="10" y="5" width="60" height="30" as="geometry" />
        </mxCell>
        <mxCell id="AqDaINTAuV95AdL_ioeB-64" value="" style="endArrow=classic;html=1;rounded=0;exitX=0.5;exitY=0;exitDx=0;exitDy=0;entryX=0.5;entryY=1;entryDx=0;entryDy=0;" parent="1" source="AqDaINTAuV95AdL_ioeB-54" target="AqDaINTAuV95AdL_ioeB-59" edge="1">
          <mxGeometry width="50" height="50" relative="1" as="geometry">
            <mxPoint x="690" y="270" as="sourcePoint" />
            <mxPoint x="740" y="220" as="targetPoint" />
          </mxGeometry>
        </mxCell>
        <mxCell id="AqDaINTAuV95AdL_ioeB-65" value="" style="endArrow=classic;html=1;rounded=0;exitX=0.5;exitY=1;exitDx=0;exitDy=0;entryX=0.5;entryY=0;entryDx=0;entryDy=0;" parent="1" source="AqDaINTAuV95AdL_ioeB-54" target="AqDaINTAuV95AdL_ioeB-62" edge="1">
          <mxGeometry width="50" height="50" relative="1" as="geometry">
            <mxPoint x="690" y="360" as="sourcePoint" />
            <mxPoint x="740" y="310" as="targetPoint" />
          </mxGeometry>
        </mxCell>
        <mxCell id="AqDaINTAuV95AdL_ioeB-104" value="" style="rounded=0;whiteSpace=wrap;html=1;" parent="1" vertex="1">
          <mxGeometry x="1415" y="855" width="110" height="45" as="geometry" />
        </mxCell>
        <mxCell id="AqDaINTAuV95AdL_ioeB-105" value="AnimalTypes" style="text;html=1;align=center;verticalAlign=middle;whiteSpace=wrap;rounded=0;fontSize=15;" parent="1" vertex="1">
          <mxGeometry x="1440" y="862.5" width="60" height="30" as="geometry" />
        </mxCell>
        <mxCell id="AqDaINTAuV95AdL_ioeB-106" value="" style="group" parent="1" vertex="1" connectable="0">
          <mxGeometry x="1430" y="740" width="80" height="40" as="geometry" />
        </mxCell>
        <mxCell id="AqDaINTAuV95AdL_ioeB-107" value="" style="ellipse;whiteSpace=wrap;html=1;" parent="AqDaINTAuV95AdL_ioeB-106" vertex="1">
          <mxGeometry width="80" height="40" as="geometry" />
        </mxCell>
        <mxCell id="AqDaINTAuV95AdL_ioeB-108" value="Name" style="text;html=1;align=center;verticalAlign=middle;whiteSpace=wrap;rounded=0;" parent="AqDaINTAuV95AdL_ioeB-106" vertex="1">
          <mxGeometry x="10" y="5" width="60" height="30" as="geometry" />
        </mxCell>
        <mxCell id="AqDaINTAuV95AdL_ioeB-109" value="" style="group" parent="1" vertex="1" connectable="0">
          <mxGeometry x="1430" y="980" width="80" height="40" as="geometry" />
        </mxCell>
        <mxCell id="AqDaINTAuV95AdL_ioeB-110" value="" style="ellipse;whiteSpace=wrap;html=1;" parent="AqDaINTAuV95AdL_ioeB-109" vertex="1">
          <mxGeometry width="80" height="40" as="geometry" />
        </mxCell>
        <mxCell id="AqDaINTAuV95AdL_ioeB-111" value="ID" style="text;html=1;align=center;verticalAlign=middle;whiteSpace=wrap;rounded=0;" parent="AqDaINTAuV95AdL_ioeB-109" vertex="1">
          <mxGeometry x="10" y="5" width="60" height="30" as="geometry" />
        </mxCell>
        <mxCell id="AqDaINTAuV95AdL_ioeB-112" value="" style="endArrow=classic;html=1;rounded=0;exitX=0.5;exitY=0;exitDx=0;exitDy=0;entryX=0.5;entryY=1;entryDx=0;entryDy=0;" parent="1" source="AqDaINTAuV95AdL_ioeB-104" target="AqDaINTAuV95AdL_ioeB-107" edge="1">
          <mxGeometry width="50" height="50" relative="1" as="geometry">
            <mxPoint x="1465" y="870" as="sourcePoint" />
            <mxPoint x="1515" y="820" as="targetPoint" />
          </mxGeometry>
        </mxCell>
        <mxCell id="AqDaINTAuV95AdL_ioeB-113" value="" style="endArrow=classic;html=1;rounded=0;exitX=0.5;exitY=1;exitDx=0;exitDy=0;entryX=0.5;entryY=0;entryDx=0;entryDy=0;" parent="1" source="AqDaINTAuV95AdL_ioeB-104" target="AqDaINTAuV95AdL_ioeB-110" edge="1">
          <mxGeometry width="50" height="50" relative="1" as="geometry">
            <mxPoint x="1465" y="960" as="sourcePoint" />
            <mxPoint x="1515" y="910" as="targetPoint" />
          </mxGeometry>
        </mxCell>
        <mxCell id="AqDaINTAuV95AdL_ioeB-116" value="" style="group" parent="1" vertex="1" connectable="0">
          <mxGeometry x="400" y="542.5" width="80" height="40" as="geometry" />
        </mxCell>
        <mxCell id="AqDaINTAuV95AdL_ioeB-117" value="" style="ellipse;whiteSpace=wrap;html=1;" parent="AqDaINTAuV95AdL_ioeB-116" vertex="1">
          <mxGeometry width="80" height="40" as="geometry" />
        </mxCell>
        <mxCell id="AqDaINTAuV95AdL_ioeB-118" value="Name" style="text;html=1;align=center;verticalAlign=middle;whiteSpace=wrap;rounded=0;" parent="AqDaINTAuV95AdL_ioeB-116" vertex="1">
          <mxGeometry x="10" y="5" width="60" height="30" as="geometry" />
        </mxCell>
        <mxCell id="AqDaINTAuV95AdL_ioeB-119" value="" style="group" parent="1" vertex="1" connectable="0">
          <mxGeometry x="330" y="820" width="80" height="40" as="geometry" />
        </mxCell>
        <mxCell id="AqDaINTAuV95AdL_ioeB-120" value="" style="ellipse;whiteSpace=wrap;html=1;" parent="AqDaINTAuV95AdL_ioeB-119" vertex="1">
          <mxGeometry width="80" height="40" as="geometry" />
        </mxCell>
        <mxCell id="AqDaINTAuV95AdL_ioeB-121" value="ID" style="text;html=1;align=center;verticalAlign=middle;whiteSpace=wrap;rounded=0;" parent="AqDaINTAuV95AdL_ioeB-119" vertex="1">
          <mxGeometry x="10" y="5" width="60" height="30" as="geometry" />
        </mxCell>
        <mxCell id="AqDaINTAuV95AdL_ioeB-122" value="" style="endArrow=classic;html=1;rounded=0;exitX=0.5;exitY=0;exitDx=0;exitDy=0;entryX=0.5;entryY=1;entryDx=0;entryDy=0;" parent="1" source="AqDaINTAuV95AdL_ioeB-114" target="AqDaINTAuV95AdL_ioeB-117" edge="1">
          <mxGeometry width="50" height="50" relative="1" as="geometry">
            <mxPoint x="380" y="710" as="sourcePoint" />
            <mxPoint x="430" y="660" as="targetPoint" />
          </mxGeometry>
        </mxCell>
        <mxCell id="AqDaINTAuV95AdL_ioeB-123" value="" style="endArrow=classic;html=1;rounded=0;exitX=0.5;exitY=1;exitDx=0;exitDy=0;entryX=0.5;entryY=0;entryDx=0;entryDy=0;" parent="1" source="AqDaINTAuV95AdL_ioeB-114" target="AqDaINTAuV95AdL_ioeB-120" edge="1">
          <mxGeometry width="50" height="50" relative="1" as="geometry">
            <mxPoint x="380" y="800" as="sourcePoint" />
            <mxPoint x="430" y="750" as="targetPoint" />
          </mxGeometry>
        </mxCell>
        <mxCell id="AqDaINTAuV95AdL_ioeB-124" value="" style="group" parent="1" vertex="1" connectable="0">
          <mxGeometry x="280" y="695" width="210" height="45" as="geometry" />
        </mxCell>
        <mxCell id="AqDaINTAuV95AdL_ioeB-114" value="" style="rounded=0;whiteSpace=wrap;html=1;" parent="AqDaINTAuV95AdL_ioeB-124" vertex="1">
          <mxGeometry width="210" height="45" as="geometry" />
        </mxCell>
        <mxCell id="AqDaINTAuV95AdL_ioeB-115" value="FormativeEnvironments" style="text;html=1;align=center;verticalAlign=middle;whiteSpace=wrap;rounded=0;fontSize=15;" parent="AqDaINTAuV95AdL_ioeB-124" vertex="1">
          <mxGeometry x="75" y="7.5" width="60" height="30" as="geometry" />
        </mxCell>
        <mxCell id="AqDaINTAuV95AdL_ioeB-125" value="" style="group" parent="1" vertex="1" connectable="0">
          <mxGeometry x="160" y="595" width="80" height="40" as="geometry" />
        </mxCell>
        <mxCell id="AqDaINTAuV95AdL_ioeB-126" value="" style="ellipse;whiteSpace=wrap;html=1;" parent="AqDaINTAuV95AdL_ioeB-125" vertex="1">
          <mxGeometry width="80" height="40" as="geometry" />
        </mxCell>
        <mxCell id="AqDaINTAuV95AdL_ioeB-127" value="Area" style="text;html=1;align=center;verticalAlign=middle;whiteSpace=wrap;rounded=0;" parent="AqDaINTAuV95AdL_ioeB-125" vertex="1">
          <mxGeometry x="10" y="5" width="60" height="30" as="geometry" />
        </mxCell>
        <mxCell id="AqDaINTAuV95AdL_ioeB-129" value="" style="group" parent="1" vertex="1" connectable="0">
          <mxGeometry x="140" y="650" width="80" height="40" as="geometry" />
        </mxCell>
        <mxCell id="AqDaINTAuV95AdL_ioeB-130" value="" style="ellipse;whiteSpace=wrap;html=1;" parent="AqDaINTAuV95AdL_ioeB-129" vertex="1">
          <mxGeometry width="80" height="40" as="geometry" />
        </mxCell>
        <mxCell id="AqDaINTAuV95AdL_ioeB-131" value="Year" style="text;html=1;align=center;verticalAlign=middle;whiteSpace=wrap;rounded=0;" parent="AqDaINTAuV95AdL_ioeB-129" vertex="1">
          <mxGeometry x="10" y="5" width="60" height="30" as="geometry" />
        </mxCell>
        <mxCell id="AqDaINTAuV95AdL_ioeB-133" value="" style="group" parent="1" vertex="1" connectable="0">
          <mxGeometry x="150" y="740" width="80" height="40" as="geometry" />
        </mxCell>
        <mxCell id="AqDaINTAuV95AdL_ioeB-134" value="" style="ellipse;whiteSpace=wrap;html=1;" parent="AqDaINTAuV95AdL_ioeB-133" vertex="1">
          <mxGeometry width="80" height="40" as="geometry" />
        </mxCell>
        <mxCell id="AqDaINTAuV95AdL_ioeB-135" value="Course" style="text;html=1;align=center;verticalAlign=middle;whiteSpace=wrap;rounded=0;" parent="AqDaINTAuV95AdL_ioeB-133" vertex="1">
          <mxGeometry x="10" y="5" width="60" height="30" as="geometry" />
        </mxCell>
        <mxCell id="AqDaINTAuV95AdL_ioeB-136" value="" style="group" parent="1" vertex="1" connectable="0">
          <mxGeometry x="230" y="810" width="80" height="40" as="geometry" />
        </mxCell>
        <mxCell id="AqDaINTAuV95AdL_ioeB-137" value="" style="ellipse;whiteSpace=wrap;html=1;" parent="AqDaINTAuV95AdL_ioeB-136" vertex="1">
          <mxGeometry width="80" height="40" as="geometry" />
        </mxCell>
        <mxCell id="AqDaINTAuV95AdL_ioeB-138" value="Group" style="text;html=1;align=center;verticalAlign=middle;whiteSpace=wrap;rounded=0;" parent="AqDaINTAuV95AdL_ioeB-136" vertex="1">
          <mxGeometry x="10" y="5" width="60" height="30" as="geometry" />
        </mxCell>
        <mxCell id="AqDaINTAuV95AdL_ioeB-139" value="" style="group" parent="1" vertex="1" connectable="0">
          <mxGeometry x="460" y="815" width="80" height="50" as="geometry" />
        </mxCell>
        <mxCell id="AqDaINTAuV95AdL_ioeB-140" value="" style="ellipse;whiteSpace=wrap;html=1;" parent="AqDaINTAuV95AdL_ioeB-139" vertex="1">
          <mxGeometry x="-40" width="120" height="50" as="geometry" />
        </mxCell>
        <mxCell id="AqDaINTAuV95AdL_ioeB-141" value="Observations" style="text;html=1;align=center;verticalAlign=middle;whiteSpace=wrap;rounded=0;" parent="AqDaINTAuV95AdL_ioeB-139" vertex="1">
          <mxGeometry x="-15" y="5" width="70" height="35" as="geometry" />
        </mxCell>
        <mxCell id="AqDaINTAuV95AdL_ioeB-142" value="" style="group" parent="1" vertex="1" connectable="0">
          <mxGeometry x="480" y="582.5" width="80" height="40" as="geometry" />
        </mxCell>
        <mxCell id="AqDaINTAuV95AdL_ioeB-143" value="" style="ellipse;whiteSpace=wrap;html=1;" parent="AqDaINTAuV95AdL_ioeB-142" vertex="1">
          <mxGeometry width="80" height="40" as="geometry" />
        </mxCell>
        <mxCell id="AqDaINTAuV95AdL_ioeB-144" value="IsActive" style="text;html=1;align=center;verticalAlign=middle;whiteSpace=wrap;rounded=0;" parent="AqDaINTAuV95AdL_ioeB-142" vertex="1">
          <mxGeometry x="10" y="5" width="60" height="30" as="geometry" />
        </mxCell>
        <mxCell id="AqDaINTAuV95AdL_ioeB-145" value="" style="endArrow=classic;html=1;rounded=0;exitX=0.5;exitY=0;exitDx=0;exitDy=0;entryX=0.5;entryY=1;entryDx=0;entryDy=0;" parent="1" source="AqDaINTAuV95AdL_ioeB-114" target="AqDaINTAuV95AdL_ioeB-143" edge="1">
          <mxGeometry width="50" height="50" relative="1" as="geometry">
            <mxPoint x="390" y="690" as="sourcePoint" />
            <mxPoint x="440" y="640" as="targetPoint" />
          </mxGeometry>
        </mxCell>
        <mxCell id="AqDaINTAuV95AdL_ioeB-146" value="" style="endArrow=classic;html=1;rounded=0;exitX=0.5;exitY=0;exitDx=0;exitDy=0;entryX=1;entryY=1;entryDx=0;entryDy=0;" parent="1" source="AqDaINTAuV95AdL_ioeB-114" target="AqDaINTAuV95AdL_ioeB-127" edge="1">
          <mxGeometry width="50" height="50" relative="1" as="geometry">
            <mxPoint x="480" y="700" as="sourcePoint" />
            <mxPoint x="530" y="650" as="targetPoint" />
          </mxGeometry>
        </mxCell>
        <mxCell id="AqDaINTAuV95AdL_ioeB-147" value="" style="endArrow=classic;html=1;rounded=0;entryX=1;entryY=0.5;entryDx=0;entryDy=0;exitX=0;exitY=0.5;exitDx=0;exitDy=0;" parent="1" source="AqDaINTAuV95AdL_ioeB-114" target="AqDaINTAuV95AdL_ioeB-130" edge="1">
          <mxGeometry width="50" height="50" relative="1" as="geometry">
            <mxPoint x="250" y="730" as="sourcePoint" />
            <mxPoint x="300" y="680" as="targetPoint" />
          </mxGeometry>
        </mxCell>
        <mxCell id="AqDaINTAuV95AdL_ioeB-148" value="" style="endArrow=classic;html=1;rounded=0;exitX=0;exitY=0.75;exitDx=0;exitDy=0;entryX=1;entryY=0.5;entryDx=0;entryDy=0;" parent="1" source="AqDaINTAuV95AdL_ioeB-114" target="AqDaINTAuV95AdL_ioeB-134" edge="1">
          <mxGeometry width="50" height="50" relative="1" as="geometry">
            <mxPoint x="260" y="810" as="sourcePoint" />
            <mxPoint x="310" y="760" as="targetPoint" />
          </mxGeometry>
        </mxCell>
        <mxCell id="AqDaINTAuV95AdL_ioeB-149" value="" style="endArrow=classic;html=1;rounded=0;exitX=0.25;exitY=1;exitDx=0;exitDy=0;entryX=0.75;entryY=0;entryDx=0;entryDy=0;" parent="1" source="AqDaINTAuV95AdL_ioeB-114" target="AqDaINTAuV95AdL_ioeB-138" edge="1">
          <mxGeometry width="50" height="50" relative="1" as="geometry">
            <mxPoint x="310" y="810" as="sourcePoint" />
            <mxPoint x="360" y="760" as="targetPoint" />
          </mxGeometry>
        </mxCell>
        <mxCell id="AqDaINTAuV95AdL_ioeB-150" value="" style="endArrow=classic;html=1;rounded=0;exitX=0.714;exitY=1;exitDx=0;exitDy=0;exitPerimeter=0;entryX=0.5;entryY=0;entryDx=0;entryDy=0;" parent="1" source="AqDaINTAuV95AdL_ioeB-114" target="AqDaINTAuV95AdL_ioeB-140" edge="1">
          <mxGeometry width="50" height="50" relative="1" as="geometry">
            <mxPoint x="460" y="820" as="sourcePoint" />
            <mxPoint x="510" y="770" as="targetPoint" />
          </mxGeometry>
        </mxCell>
        <mxCell id="AqDaINTAuV95AdL_ioeB-187" value="" style="group" parent="1" vertex="1" connectable="0">
          <mxGeometry x="1090" y="700" width="80" height="40" as="geometry" />
        </mxCell>
        <mxCell id="AqDaINTAuV95AdL_ioeB-188" value="" style="ellipse;whiteSpace=wrap;html=1;" parent="AqDaINTAuV95AdL_ioeB-187" vertex="1">
          <mxGeometry width="80" height="40" as="geometry" />
        </mxCell>
        <mxCell id="AqDaINTAuV95AdL_ioeB-189" value="Code" style="text;html=1;align=center;verticalAlign=middle;whiteSpace=wrap;rounded=0;" parent="AqDaINTAuV95AdL_ioeB-187" vertex="1">
          <mxGeometry x="10" y="5" width="60" height="30" as="geometry" />
        </mxCell>
        <mxCell id="AqDaINTAuV95AdL_ioeB-190" value="" style="group" parent="1" vertex="1" connectable="0">
          <mxGeometry x="1100" y="950" width="80" height="40" as="geometry" />
        </mxCell>
        <mxCell id="AqDaINTAuV95AdL_ioeB-191" value="" style="ellipse;whiteSpace=wrap;html=1;" parent="AqDaINTAuV95AdL_ioeB-190" vertex="1">
          <mxGeometry width="80" height="40" as="geometry" />
        </mxCell>
        <mxCell id="AqDaINTAuV95AdL_ioeB-192" value="ID" style="text;html=1;align=center;verticalAlign=middle;whiteSpace=wrap;rounded=0;" parent="AqDaINTAuV95AdL_ioeB-190" vertex="1">
          <mxGeometry x="10" y="5" width="60" height="30" as="geometry" />
        </mxCell>
        <mxCell id="AqDaINTAuV95AdL_ioeB-193" value="" style="endArrow=classic;html=1;rounded=0;exitX=0.5;exitY=0;exitDx=0;exitDy=0;entryX=0.5;entryY=1;entryDx=0;entryDy=0;" parent="1" source="AqDaINTAuV95AdL_ioeB-196" target="AqDaINTAuV95AdL_ioeB-188" edge="1">
          <mxGeometry width="50" height="50" relative="1" as="geometry">
            <mxPoint x="1100" y="850" as="sourcePoint" />
            <mxPoint x="1150" y="800" as="targetPoint" />
          </mxGeometry>
        </mxCell>
        <mxCell id="AqDaINTAuV95AdL_ioeB-194" value="" style="endArrow=classic;html=1;rounded=0;exitX=0.5;exitY=1;exitDx=0;exitDy=0;entryX=0.5;entryY=0;entryDx=0;entryDy=0;" parent="1" source="AqDaINTAuV95AdL_ioeB-196" target="AqDaINTAuV95AdL_ioeB-191" edge="1">
          <mxGeometry width="50" height="50" relative="1" as="geometry">
            <mxPoint x="1100" y="940" as="sourcePoint" />
            <mxPoint x="1150" y="890" as="targetPoint" />
          </mxGeometry>
        </mxCell>
        <mxCell id="AqDaINTAuV95AdL_ioeB-195" value="" style="group" parent="1" vertex="1" connectable="0">
          <mxGeometry x="1000" y="840" width="140" height="40" as="geometry" />
        </mxCell>
        <mxCell id="AqDaINTAuV95AdL_ioeB-196" value="" style="rounded=0;whiteSpace=wrap;html=1;" parent="AqDaINTAuV95AdL_ioeB-195" vertex="1">
          <mxGeometry width="140" height="40" as="geometry" />
        </mxCell>
        <mxCell id="AqDaINTAuV95AdL_ioeB-197" value="Animals" style="text;html=1;align=center;verticalAlign=middle;whiteSpace=wrap;rounded=0;fontSize=15;" parent="AqDaINTAuV95AdL_ioeB-195" vertex="1">
          <mxGeometry x="50" y="6.666666666666666" width="40" height="26.666666666666664" as="geometry" />
        </mxCell>
        <mxCell id="AqDaINTAuV95AdL_ioeB-198" value="" style="group" parent="1" vertex="1" connectable="0">
          <mxGeometry x="970" y="710" width="80" height="40" as="geometry" />
        </mxCell>
        <mxCell id="AqDaINTAuV95AdL_ioeB-199" value="" style="ellipse;whiteSpace=wrap;html=1;" parent="AqDaINTAuV95AdL_ioeB-198" vertex="1">
          <mxGeometry width="80" height="40" as="geometry" />
        </mxCell>
        <mxCell id="AqDaINTAuV95AdL_ioeB-200" value="Birth" style="text;html=1;align=center;verticalAlign=middle;whiteSpace=wrap;rounded=0;" parent="AqDaINTAuV95AdL_ioeB-198" vertex="1">
          <mxGeometry x="10" y="5" width="60" height="30" as="geometry" />
        </mxCell>
        <mxCell id="AqDaINTAuV95AdL_ioeB-201" value="" style="group" parent="1" vertex="1" connectable="0">
          <mxGeometry x="870" y="720" width="80" height="40" as="geometry" />
        </mxCell>
        <mxCell id="AqDaINTAuV95AdL_ioeB-202" value="" style="ellipse;whiteSpace=wrap;html=1;" parent="AqDaINTAuV95AdL_ioeB-201" vertex="1">
          <mxGeometry width="80" height="40" as="geometry" />
        </mxCell>
        <mxCell id="AqDaINTAuV95AdL_ioeB-203" value="EntryDate" style="text;html=1;align=center;verticalAlign=middle;whiteSpace=wrap;rounded=0;" parent="AqDaINTAuV95AdL_ioeB-201" vertex="1">
          <mxGeometry x="10" y="5" width="60" height="30" as="geometry" />
        </mxCell>
        <mxCell id="AqDaINTAuV95AdL_ioeB-207" value="" style="group" parent="1" vertex="1" connectable="0">
          <mxGeometry x="960" y="940" width="120" height="50" as="geometry" />
        </mxCell>
        <mxCell id="AqDaINTAuV95AdL_ioeB-208" value="" style="ellipse;whiteSpace=wrap;html=1;" parent="AqDaINTAuV95AdL_ioeB-207" vertex="1">
          <mxGeometry width="120" height="50" as="geometry" />
        </mxCell>
        <mxCell id="AqDaINTAuV95AdL_ioeB-209" value="ProductiveState" style="text;html=1;align=center;verticalAlign=middle;whiteSpace=wrap;rounded=0;" parent="AqDaINTAuV95AdL_ioeB-207" vertex="1">
          <mxGeometry x="15" y="6.25" width="90" height="37.5" as="geometry" />
        </mxCell>
        <mxCell id="AqDaINTAuV95AdL_ioeB-210" value="" style="group" parent="1" vertex="1" connectable="0">
          <mxGeometry x="1230" y="945" width="80" height="50" as="geometry" />
        </mxCell>
        <mxCell id="AqDaINTAuV95AdL_ioeB-211" value="" style="ellipse;whiteSpace=wrap;html=1;" parent="AqDaINTAuV95AdL_ioeB-210" vertex="1">
          <mxGeometry x="-40" width="120" height="50" as="geometry" />
        </mxCell>
        <mxCell id="AqDaINTAuV95AdL_ioeB-212" value="Observations" style="text;html=1;align=center;verticalAlign=middle;whiteSpace=wrap;rounded=0;" parent="AqDaINTAuV95AdL_ioeB-210" vertex="1">
          <mxGeometry x="-15" y="5" width="70" height="35" as="geometry" />
        </mxCell>
        <mxCell id="AqDaINTAuV95AdL_ioeB-213" value="" style="group" parent="1" vertex="1" connectable="0">
          <mxGeometry x="1200" y="710" width="80" height="40" as="geometry" />
        </mxCell>
        <mxCell id="AqDaINTAuV95AdL_ioeB-214" value="" style="ellipse;whiteSpace=wrap;html=1;" parent="AqDaINTAuV95AdL_ioeB-213" vertex="1">
          <mxGeometry width="80" height="40" as="geometry" />
        </mxCell>
        <mxCell id="AqDaINTAuV95AdL_ioeB-215" value="IsActive" style="text;html=1;align=center;verticalAlign=middle;whiteSpace=wrap;rounded=0;" parent="AqDaINTAuV95AdL_ioeB-213" vertex="1">
          <mxGeometry x="10" y="5" width="60" height="30" as="geometry" />
        </mxCell>
        <mxCell id="AqDaINTAuV95AdL_ioeB-216" value="" style="endArrow=classic;html=1;rounded=0;exitX=0.5;exitY=0;exitDx=0;exitDy=0;entryX=0.5;entryY=1;entryDx=0;entryDy=0;" parent="1" source="AqDaINTAuV95AdL_ioeB-196" target="AqDaINTAuV95AdL_ioeB-214" edge="1">
          <mxGeometry width="50" height="50" relative="1" as="geometry">
            <mxPoint x="1110" y="830" as="sourcePoint" />
            <mxPoint x="1160" y="780" as="targetPoint" />
          </mxGeometry>
        </mxCell>
        <mxCell id="AqDaINTAuV95AdL_ioeB-217" value="" style="endArrow=classic;html=1;rounded=0;exitX=0.5;exitY=0;exitDx=0;exitDy=0;entryX=1;entryY=1;entryDx=0;entryDy=0;" parent="1" source="AqDaINTAuV95AdL_ioeB-196" target="AqDaINTAuV95AdL_ioeB-200" edge="1">
          <mxGeometry width="50" height="50" relative="1" as="geometry">
            <mxPoint x="1200" y="840" as="sourcePoint" />
            <mxPoint x="1250" y="790" as="targetPoint" />
          </mxGeometry>
        </mxCell>
        <mxCell id="AqDaINTAuV95AdL_ioeB-218" value="" style="endArrow=classic;html=1;rounded=0;entryX=1;entryY=0.5;entryDx=0;entryDy=0;exitX=0.25;exitY=0;exitDx=0;exitDy=0;" parent="1" source="AqDaINTAuV95AdL_ioeB-196" target="AqDaINTAuV95AdL_ioeB-202" edge="1">
          <mxGeometry width="50" height="50" relative="1" as="geometry">
            <mxPoint x="970" y="870" as="sourcePoint" />
            <mxPoint x="1020" y="820" as="targetPoint" />
          </mxGeometry>
        </mxCell>
        <mxCell id="AqDaINTAuV95AdL_ioeB-219" value="" style="endArrow=classic;html=1;rounded=0;exitX=0.25;exitY=1;exitDx=0;exitDy=0;entryX=1;entryY=0;entryDx=0;entryDy=0;" parent="1" source="AqDaINTAuV95AdL_ioeB-196" target="AqDaINTAuV95AdL_ioeB-205" edge="1">
          <mxGeometry width="50" height="50" relative="1" as="geometry">
            <mxPoint x="980" y="950" as="sourcePoint" />
            <mxPoint x="940" y="965" as="targetPoint" />
          </mxGeometry>
        </mxCell>
        <mxCell id="AqDaINTAuV95AdL_ioeB-220" value="" style="endArrow=classic;html=1;rounded=0;exitX=0.25;exitY=1;exitDx=0;exitDy=0;entryX=0.75;entryY=0;entryDx=0;entryDy=0;" parent="1" source="AqDaINTAuV95AdL_ioeB-196" target="AqDaINTAuV95AdL_ioeB-209" edge="1">
          <mxGeometry width="50" height="50" relative="1" as="geometry">
            <mxPoint x="1030" y="950" as="sourcePoint" />
            <mxPoint x="1080" y="900" as="targetPoint" />
          </mxGeometry>
        </mxCell>
        <mxCell id="AqDaINTAuV95AdL_ioeB-221" value="" style="endArrow=classic;html=1;rounded=0;exitX=0.714;exitY=1;exitDx=0;exitDy=0;exitPerimeter=0;entryX=0.5;entryY=0;entryDx=0;entryDy=0;" parent="1" source="AqDaINTAuV95AdL_ioeB-196" target="AqDaINTAuV95AdL_ioeB-211" edge="1">
          <mxGeometry width="50" height="50" relative="1" as="geometry">
            <mxPoint x="1180" y="960" as="sourcePoint" />
            <mxPoint x="1230" y="910" as="targetPoint" />
          </mxGeometry>
        </mxCell>
        <mxCell id="AqDaINTAuV95AdL_ioeB-226" value="" style="group" parent="1" vertex="1" connectable="0">
          <mxGeometry x="1550" y="305" width="80" height="40" as="geometry" />
        </mxCell>
        <mxCell id="AqDaINTAuV95AdL_ioeB-227" value="" style="ellipse;whiteSpace=wrap;html=1;" parent="AqDaINTAuV95AdL_ioeB-226" vertex="1">
          <mxGeometry width="80" height="40" as="geometry" />
        </mxCell>
        <mxCell id="AqDaINTAuV95AdL_ioeB-228" value="ID" style="text;html=1;align=center;verticalAlign=middle;whiteSpace=wrap;rounded=0;" parent="AqDaINTAuV95AdL_ioeB-226" vertex="1">
          <mxGeometry x="10" y="5" width="60" height="30" as="geometry" />
        </mxCell>
        <mxCell id="AqDaINTAuV95AdL_ioeB-229" value="" style="group" parent="1" vertex="1" connectable="0">
          <mxGeometry x="1340" y="280" width="105" height="40" as="geometry" />
        </mxCell>
        <mxCell id="AqDaINTAuV95AdL_ioeB-230" value="" style="ellipse;whiteSpace=wrap;html=1;" parent="AqDaINTAuV95AdL_ioeB-229" vertex="1">
          <mxGeometry width="105" height="40" as="geometry" />
        </mxCell>
        <mxCell id="AqDaINTAuV95AdL_ioeB-231" value="RecordDate" style="text;html=1;align=center;verticalAlign=middle;whiteSpace=wrap;rounded=0;" parent="AqDaINTAuV95AdL_ioeB-229" vertex="1">
          <mxGeometry x="13.125" y="5" width="78.75" height="30" as="geometry" />
        </mxCell>
        <mxCell id="AqDaINTAuV95AdL_ioeB-232" value="" style="group" parent="1" vertex="1" connectable="0">
          <mxGeometry x="1470" y="280" width="120" height="40" as="geometry" />
        </mxCell>
        <mxCell id="AqDaINTAuV95AdL_ioeB-233" value="" style="ellipse;whiteSpace=wrap;html=1;" parent="AqDaINTAuV95AdL_ioeB-232" vertex="1">
          <mxGeometry y="-10" width="106.66666666666666" height="40" as="geometry" />
        </mxCell>
        <mxCell id="AqDaINTAuV95AdL_ioeB-234" value="TotalCost" style="text;html=1;align=center;verticalAlign=middle;whiteSpace=wrap;rounded=0;" parent="AqDaINTAuV95AdL_ioeB-232" vertex="1">
          <mxGeometry x="13.330000000000041" y="-5" width="80" height="30" as="geometry" />
        </mxCell>
        <mxCell id="AqDaINTAuV95AdL_ioeB-235" value="" style="group" parent="1" vertex="1" connectable="0">
          <mxGeometry x="1470" y="520" width="110" height="50" as="geometry" />
        </mxCell>
        <mxCell id="AqDaINTAuV95AdL_ioeB-236" value="" style="ellipse;whiteSpace=wrap;html=1;" parent="AqDaINTAuV95AdL_ioeB-235" vertex="1">
          <mxGeometry width="110" height="50" as="geometry" />
        </mxCell>
        <mxCell id="AqDaINTAuV95AdL_ioeB-237" value="Observations" style="text;html=1;align=center;verticalAlign=middle;whiteSpace=wrap;rounded=0;" parent="AqDaINTAuV95AdL_ioeB-235" vertex="1">
          <mxGeometry x="13.75" y="6.25" width="82.5" height="37.5" as="geometry" />
        </mxCell>
        <mxCell id="AqDaINTAuV95AdL_ioeB-241" value="" style="group" parent="1" vertex="1" connectable="0">
          <mxGeometry x="1470" y="395" width="110" height="45" as="geometry" />
        </mxCell>
        <mxCell id="AqDaINTAuV95AdL_ioeB-242" value="" style="rounded=0;whiteSpace=wrap;html=1;" parent="AqDaINTAuV95AdL_ioeB-241" vertex="1">
          <mxGeometry width="110" height="45" as="geometry" />
        </mxCell>
        <mxCell id="AqDaINTAuV95AdL_ioeB-243" value="Purchase" style="text;html=1;align=center;verticalAlign=middle;whiteSpace=wrap;rounded=0;fontSize=15;" parent="AqDaINTAuV95AdL_ioeB-241" vertex="1">
          <mxGeometry x="25" y="7.5" width="60" height="30" as="geometry" />
        </mxCell>
        <mxCell id="AqDaINTAuV95AdL_ioeB-244" value="" style="endArrow=classic;html=1;rounded=0;exitX=0.5;exitY=0;exitDx=0;exitDy=0;entryX=0.5;entryY=1;entryDx=0;entryDy=0;" parent="1" source="AqDaINTAuV95AdL_ioeB-242" target="AqDaINTAuV95AdL_ioeB-227" edge="1">
          <mxGeometry width="50" height="50" relative="1" as="geometry">
            <mxPoint x="1480" y="440" as="sourcePoint" />
            <mxPoint x="1530" y="390" as="targetPoint" />
          </mxGeometry>
        </mxCell>
        <mxCell id="AqDaINTAuV95AdL_ioeB-245" value="" style="endArrow=classic;html=1;rounded=0;entryX=0.5;entryY=1;entryDx=0;entryDy=0;exitX=0.5;exitY=0;exitDx=0;exitDy=0;" parent="1" source="AqDaINTAuV95AdL_ioeB-242" target="AqDaINTAuV95AdL_ioeB-233" edge="1">
          <mxGeometry width="50" height="50" relative="1" as="geometry">
            <mxPoint x="1523" y="390" as="sourcePoint" />
            <mxPoint x="1530" y="390" as="targetPoint" />
          </mxGeometry>
        </mxCell>
        <mxCell id="AqDaINTAuV95AdL_ioeB-246" value="" style="endArrow=classic;html=1;rounded=0;exitX=0.5;exitY=0;exitDx=0;exitDy=0;entryX=0.708;entryY=1.015;entryDx=0;entryDy=0;entryPerimeter=0;" parent="1" source="AqDaINTAuV95AdL_ioeB-242" target="AqDaINTAuV95AdL_ioeB-230" edge="1">
          <mxGeometry width="50" height="50" relative="1" as="geometry">
            <mxPoint x="1450" y="410" as="sourcePoint" />
            <mxPoint x="1430" y="320" as="targetPoint" />
          </mxGeometry>
        </mxCell>
        <mxCell id="AqDaINTAuV95AdL_ioeB-247" value="" style="endArrow=classic;html=1;rounded=0;exitX=0.5;exitY=1;exitDx=0;exitDy=0;entryX=0.5;entryY=0;entryDx=0;entryDy=0;" parent="1" source="AqDaINTAuV95AdL_ioeB-242" target="AqDaINTAuV95AdL_ioeB-237" edge="1">
          <mxGeometry width="50" height="50" relative="1" as="geometry">
            <mxPoint x="1500" y="520" as="sourcePoint" />
            <mxPoint x="1550" y="470" as="targetPoint" />
          </mxGeometry>
        </mxCell>
        <mxCell id="AqDaINTAuV95AdL_ioeB-250" value="" style="group" parent="1" vertex="1" connectable="0">
          <mxGeometry x="1920" y="320" width="80" height="40" as="geometry" />
        </mxCell>
        <mxCell id="AqDaINTAuV95AdL_ioeB-251" value="" style="ellipse;whiteSpace=wrap;html=1;" parent="AqDaINTAuV95AdL_ioeB-250" vertex="1">
          <mxGeometry width="80" height="40" as="geometry" />
        </mxCell>
        <mxCell id="AqDaINTAuV95AdL_ioeB-252" value="ID" style="text;html=1;align=center;verticalAlign=middle;whiteSpace=wrap;rounded=0;" parent="AqDaINTAuV95AdL_ioeB-250" vertex="1">
          <mxGeometry x="10" y="5" width="60" height="30" as="geometry" />
        </mxCell>
        <mxCell id="AqDaINTAuV95AdL_ioeB-253" value="" style="group" parent="1" vertex="1" connectable="0">
          <mxGeometry x="1660" y="320" width="105" height="40" as="geometry" />
        </mxCell>
        <mxCell id="AqDaINTAuV95AdL_ioeB-254" value="" style="ellipse;whiteSpace=wrap;html=1;" parent="AqDaINTAuV95AdL_ioeB-253" vertex="1">
          <mxGeometry width="105" height="40" as="geometry" />
        </mxCell>
        <mxCell id="AqDaINTAuV95AdL_ioeB-255" value="RecordDate" style="text;html=1;align=center;verticalAlign=middle;whiteSpace=wrap;rounded=0;" parent="AqDaINTAuV95AdL_ioeB-253" vertex="1">
          <mxGeometry x="13.125" y="5" width="78.75" height="30" as="geometry" />
        </mxCell>
        <mxCell id="AqDaINTAuV95AdL_ioeB-256" value="" style="group" parent="1" vertex="1" connectable="0">
          <mxGeometry x="1790" y="320" width="120" height="40" as="geometry" />
        </mxCell>
        <mxCell id="AqDaINTAuV95AdL_ioeB-257" value="" style="ellipse;whiteSpace=wrap;html=1;" parent="AqDaINTAuV95AdL_ioeB-256" vertex="1">
          <mxGeometry y="-10" width="106.66666666666666" height="40" as="geometry" />
        </mxCell>
        <mxCell id="AqDaINTAuV95AdL_ioeB-258" value="TotalCost" style="text;html=1;align=center;verticalAlign=middle;whiteSpace=wrap;rounded=0;" parent="AqDaINTAuV95AdL_ioeB-256" vertex="1">
          <mxGeometry x="13.330000000000041" y="-5" width="80" height="30" as="geometry" />
        </mxCell>
        <mxCell id="AqDaINTAuV95AdL_ioeB-259" value="" style="group" parent="1" vertex="1" connectable="0">
          <mxGeometry x="1760" y="540" width="110" height="50" as="geometry" />
        </mxCell>
        <mxCell id="AqDaINTAuV95AdL_ioeB-260" value="" style="ellipse;whiteSpace=wrap;html=1;" parent="AqDaINTAuV95AdL_ioeB-259" vertex="1">
          <mxGeometry width="110" height="50" as="geometry" />
        </mxCell>
        <mxCell id="AqDaINTAuV95AdL_ioeB-261" value="Observations" style="text;html=1;align=center;verticalAlign=middle;whiteSpace=wrap;rounded=0;" parent="AqDaINTAuV95AdL_ioeB-259" vertex="1">
          <mxGeometry x="13.75" y="6.25" width="82.5" height="37.5" as="geometry" />
        </mxCell>
        <mxCell id="AqDaINTAuV95AdL_ioeB-262" value="" style="group" parent="1" vertex="1" connectable="0">
          <mxGeometry x="1790" y="435" width="110" height="45" as="geometry" />
        </mxCell>
        <mxCell id="AqDaINTAuV95AdL_ioeB-263" value="" style="rounded=0;whiteSpace=wrap;html=1;" parent="AqDaINTAuV95AdL_ioeB-262" vertex="1">
          <mxGeometry width="110" height="45" as="geometry" />
        </mxCell>
        <mxCell id="AqDaINTAuV95AdL_ioeB-264" value="Sells" style="text;html=1;align=center;verticalAlign=middle;whiteSpace=wrap;rounded=0;fontSize=15;" parent="AqDaINTAuV95AdL_ioeB-262" vertex="1">
          <mxGeometry x="25" y="7.5" width="60" height="30" as="geometry" />
        </mxCell>
        <mxCell id="AqDaINTAuV95AdL_ioeB-265" value="" style="endArrow=classic;html=1;rounded=0;exitX=0.5;exitY=0;exitDx=0;exitDy=0;entryX=0.5;entryY=1;entryDx=0;entryDy=0;" parent="1" source="AqDaINTAuV95AdL_ioeB-263" target="AqDaINTAuV95AdL_ioeB-251" edge="1">
          <mxGeometry width="50" height="50" relative="1" as="geometry">
            <mxPoint x="1800" y="480" as="sourcePoint" />
            <mxPoint x="1850" y="430" as="targetPoint" />
          </mxGeometry>
        </mxCell>
        <mxCell id="AqDaINTAuV95AdL_ioeB-266" value="" style="endArrow=classic;html=1;rounded=0;entryX=0.5;entryY=1;entryDx=0;entryDy=0;exitX=0.5;exitY=0;exitDx=0;exitDy=0;" parent="1" source="AqDaINTAuV95AdL_ioeB-263" target="AqDaINTAuV95AdL_ioeB-257" edge="1">
          <mxGeometry width="50" height="50" relative="1" as="geometry">
            <mxPoint x="1843" y="430" as="sourcePoint" />
            <mxPoint x="1850" y="430" as="targetPoint" />
          </mxGeometry>
        </mxCell>
        <mxCell id="AqDaINTAuV95AdL_ioeB-267" value="" style="endArrow=classic;html=1;rounded=0;exitX=0.5;exitY=0;exitDx=0;exitDy=0;entryX=0.708;entryY=1.015;entryDx=0;entryDy=0;entryPerimeter=0;" parent="1" source="AqDaINTAuV95AdL_ioeB-263" target="AqDaINTAuV95AdL_ioeB-254" edge="1">
          <mxGeometry width="50" height="50" relative="1" as="geometry">
            <mxPoint x="1770" y="450" as="sourcePoint" />
            <mxPoint x="1750" y="360" as="targetPoint" />
          </mxGeometry>
        </mxCell>
        <mxCell id="AqDaINTAuV95AdL_ioeB-268" value="" style="endArrow=classic;html=1;rounded=0;exitX=0.5;exitY=1;exitDx=0;exitDy=0;entryX=0.5;entryY=0;entryDx=0;entryDy=0;" parent="1" source="AqDaINTAuV95AdL_ioeB-263" target="AqDaINTAuV95AdL_ioeB-261" edge="1">
          <mxGeometry width="50" height="50" relative="1" as="geometry">
            <mxPoint x="1820" y="560" as="sourcePoint" />
            <mxPoint x="1870" y="510" as="targetPoint" />
          </mxGeometry>
        </mxCell>
        <mxCell id="AqDaINTAuV95AdL_ioeB-269" value="" style="group" parent="1" vertex="1" connectable="0">
          <mxGeometry x="2410" y="590" width="80" height="40" as="geometry" />
        </mxCell>
        <mxCell id="AqDaINTAuV95AdL_ioeB-270" value="" style="ellipse;whiteSpace=wrap;html=1;" parent="AqDaINTAuV95AdL_ioeB-269" vertex="1">
          <mxGeometry width="80" height="40" as="geometry" />
        </mxCell>
        <mxCell id="AqDaINTAuV95AdL_ioeB-271" value="Code" style="text;html=1;align=center;verticalAlign=middle;whiteSpace=wrap;rounded=0;" parent="AqDaINTAuV95AdL_ioeB-269" vertex="1">
          <mxGeometry x="10" y="5" width="60" height="30" as="geometry" />
        </mxCell>
        <mxCell id="AqDaINTAuV95AdL_ioeB-272" value="" style="group" parent="1" vertex="1" connectable="0">
          <mxGeometry x="2190" y="815" width="80" height="40" as="geometry" />
        </mxCell>
        <mxCell id="AqDaINTAuV95AdL_ioeB-273" value="" style="ellipse;whiteSpace=wrap;html=1;" parent="AqDaINTAuV95AdL_ioeB-272" vertex="1">
          <mxGeometry width="80" height="40" as="geometry" />
        </mxCell>
        <mxCell id="AqDaINTAuV95AdL_ioeB-274" value="ID" style="text;html=1;align=center;verticalAlign=middle;whiteSpace=wrap;rounded=0;" parent="AqDaINTAuV95AdL_ioeB-272" vertex="1">
          <mxGeometry x="10" y="5" width="60" height="30" as="geometry" />
        </mxCell>
        <mxCell id="AqDaINTAuV95AdL_ioeB-275" value="" style="endArrow=classic;html=1;rounded=0;exitX=0.5;exitY=0;exitDx=0;exitDy=0;entryX=0.5;entryY=1;entryDx=0;entryDy=0;" parent="1" source="AqDaINTAuV95AdL_ioeB-278" target="AqDaINTAuV95AdL_ioeB-270" edge="1">
          <mxGeometry width="50" height="50" relative="1" as="geometry">
            <mxPoint x="2420" y="740" as="sourcePoint" />
            <mxPoint x="2470" y="690" as="targetPoint" />
          </mxGeometry>
        </mxCell>
        <mxCell id="AqDaINTAuV95AdL_ioeB-276" value="" style="endArrow=classic;html=1;rounded=0;exitX=0.5;exitY=1;exitDx=0;exitDy=0;entryX=0.5;entryY=0;entryDx=0;entryDy=0;" parent="1" source="AqDaINTAuV95AdL_ioeB-278" target="AqDaINTAuV95AdL_ioeB-273" edge="1">
          <mxGeometry width="50" height="50" relative="1" as="geometry">
            <mxPoint x="2420" y="830" as="sourcePoint" />
            <mxPoint x="2470" y="780" as="targetPoint" />
          </mxGeometry>
        </mxCell>
        <mxCell id="AqDaINTAuV95AdL_ioeB-277" value="" style="group" parent="1" vertex="1" connectable="0">
          <mxGeometry x="2320" y="730" width="140" height="40" as="geometry" />
        </mxCell>
        <mxCell id="AqDaINTAuV95AdL_ioeB-278" value="" style="rounded=0;whiteSpace=wrap;html=1;" parent="AqDaINTAuV95AdL_ioeB-277" vertex="1">
          <mxGeometry width="140" height="40" as="geometry" />
        </mxCell>
        <mxCell id="AqDaINTAuV95AdL_ioeB-279" value="Product" style="text;html=1;align=center;verticalAlign=middle;whiteSpace=wrap;rounded=0;fontSize=15;" parent="AqDaINTAuV95AdL_ioeB-277" vertex="1">
          <mxGeometry x="50" y="6.666666666666666" width="40" height="26.666666666666664" as="geometry" />
        </mxCell>
        <mxCell id="a-pvaFXM3P0UM7oyCH4t-9" value="" style="endArrow=classic;html=1;rounded=0;" edge="1" parent="AqDaINTAuV95AdL_ioeB-277" source="AqDaINTAuV95AdL_ioeB-278">
          <mxGeometry width="50" height="50" relative="1" as="geometry">
            <mxPoint x="-2480.710678118655" y="-620" as="sourcePoint" />
            <mxPoint x="-70.71067811865476" y="20" as="targetPoint" />
          </mxGeometry>
        </mxCell>
        <mxCell id="AqDaINTAuV95AdL_ioeB-280" value="" style="group" parent="1" vertex="1" connectable="0">
          <mxGeometry x="2290" y="600" width="80" height="40" as="geometry" />
        </mxCell>
        <mxCell id="AqDaINTAuV95AdL_ioeB-281" value="" style="ellipse;whiteSpace=wrap;html=1;" parent="AqDaINTAuV95AdL_ioeB-280" vertex="1">
          <mxGeometry width="80" height="40" as="geometry" />
        </mxCell>
        <mxCell id="AqDaINTAuV95AdL_ioeB-282" value="Name" style="text;html=1;align=center;verticalAlign=middle;whiteSpace=wrap;rounded=0;" parent="AqDaINTAuV95AdL_ioeB-280" vertex="1">
          <mxGeometry x="10" y="5" width="60" height="30" as="geometry" />
        </mxCell>
        <mxCell id="AqDaINTAuV95AdL_ioeB-283" value="" style="group" parent="1" vertex="1" connectable="0">
          <mxGeometry x="2190" y="610" width="80" height="40" as="geometry" />
        </mxCell>
        <mxCell id="AqDaINTAuV95AdL_ioeB-284" value="" style="ellipse;whiteSpace=wrap;html=1;" parent="AqDaINTAuV95AdL_ioeB-283" vertex="1">
          <mxGeometry width="80" height="40" as="geometry" />
        </mxCell>
        <mxCell id="AqDaINTAuV95AdL_ioeB-285" value="Stock" style="text;html=1;align=center;verticalAlign=middle;whiteSpace=wrap;rounded=0;" parent="AqDaINTAuV95AdL_ioeB-283" vertex="1">
          <mxGeometry x="10" y="5" width="60" height="30" as="geometry" />
        </mxCell>
        <mxCell id="AqDaINTAuV95AdL_ioeB-292" value="" style="group" parent="1" vertex="1" connectable="0">
          <mxGeometry x="2460" y="845" width="80" height="50" as="geometry" />
        </mxCell>
        <mxCell id="AqDaINTAuV95AdL_ioeB-293" value="" style="ellipse;whiteSpace=wrap;html=1;" parent="AqDaINTAuV95AdL_ioeB-292" vertex="1">
          <mxGeometry x="-40" width="120" height="50" as="geometry" />
        </mxCell>
        <mxCell id="AqDaINTAuV95AdL_ioeB-294" value="Observations" style="text;html=1;align=center;verticalAlign=middle;whiteSpace=wrap;rounded=0;" parent="AqDaINTAuV95AdL_ioeB-292" vertex="1">
          <mxGeometry x="-15" y="5" width="70" height="35" as="geometry" />
        </mxCell>
        <mxCell id="AqDaINTAuV95AdL_ioeB-298" value="" style="endArrow=classic;html=1;rounded=0;exitX=0.5;exitY=0;exitDx=0;exitDy=0;entryX=0.5;entryY=1;entryDx=0;entryDy=0;" parent="1" source="AqDaINTAuV95AdL_ioeB-278" edge="1">
          <mxGeometry width="50" height="50" relative="1" as="geometry">
            <mxPoint x="2430" y="720" as="sourcePoint" />
            <mxPoint x="2560" y="640" as="targetPoint" />
          </mxGeometry>
        </mxCell>
        <mxCell id="AqDaINTAuV95AdL_ioeB-299" value="" style="endArrow=classic;html=1;rounded=0;exitX=0.5;exitY=0;exitDx=0;exitDy=0;entryX=1;entryY=1;entryDx=0;entryDy=0;" parent="1" source="AqDaINTAuV95AdL_ioeB-278" target="AqDaINTAuV95AdL_ioeB-282" edge="1">
          <mxGeometry width="50" height="50" relative="1" as="geometry">
            <mxPoint x="2520" y="730" as="sourcePoint" />
            <mxPoint x="2570" y="680" as="targetPoint" />
          </mxGeometry>
        </mxCell>
        <mxCell id="AqDaINTAuV95AdL_ioeB-300" value="" style="endArrow=classic;html=1;rounded=0;entryX=1;entryY=0.5;entryDx=0;entryDy=0;exitX=0.5;exitY=0;exitDx=0;exitDy=0;" parent="1" source="AqDaINTAuV95AdL_ioeB-278" target="AqDaINTAuV95AdL_ioeB-284" edge="1">
          <mxGeometry width="50" height="50" relative="1" as="geometry">
            <mxPoint x="2290" y="760" as="sourcePoint" />
            <mxPoint x="2340" y="710" as="targetPoint" />
          </mxGeometry>
        </mxCell>
        <mxCell id="AqDaINTAuV95AdL_ioeB-303" value="" style="endArrow=classic;html=1;rounded=0;entryX=0.5;entryY=0;entryDx=0;entryDy=0;" parent="1" target="AqDaINTAuV95AdL_ioeB-293" edge="1">
          <mxGeometry width="50" height="50" relative="1" as="geometry">
            <mxPoint x="2390" y="770" as="sourcePoint" />
            <mxPoint x="2550" y="800" as="targetPoint" />
          </mxGeometry>
        </mxCell>
        <mxCell id="AqDaINTAuV95AdL_ioeB-304" value="" style="group" parent="1" vertex="1" connectable="0">
          <mxGeometry x="2340" y="1060" width="80" height="40" as="geometry" />
        </mxCell>
        <mxCell id="AqDaINTAuV95AdL_ioeB-305" value="" style="ellipse;whiteSpace=wrap;html=1;" parent="AqDaINTAuV95AdL_ioeB-304" vertex="1">
          <mxGeometry width="80" height="40" as="geometry" />
        </mxCell>
        <mxCell id="AqDaINTAuV95AdL_ioeB-306" value="ID" style="text;html=1;align=center;verticalAlign=middle;whiteSpace=wrap;rounded=0;" parent="AqDaINTAuV95AdL_ioeB-304" vertex="1">
          <mxGeometry x="10" y="5" width="60" height="30" as="geometry" />
        </mxCell>
        <mxCell id="AqDaINTAuV95AdL_ioeB-310" value="" style="group" parent="1" vertex="1" connectable="0">
          <mxGeometry x="2010" y="930" width="120" height="40" as="geometry" />
        </mxCell>
        <mxCell id="AqDaINTAuV95AdL_ioeB-311" value="" style="ellipse;whiteSpace=wrap;html=1;" parent="AqDaINTAuV95AdL_ioeB-310" vertex="1">
          <mxGeometry y="-10" width="106.66666666666666" height="40" as="geometry" />
        </mxCell>
        <mxCell id="AqDaINTAuV95AdL_ioeB-312" value="Quality" style="text;html=1;align=center;verticalAlign=middle;whiteSpace=wrap;rounded=0;" parent="AqDaINTAuV95AdL_ioeB-310" vertex="1">
          <mxGeometry x="13.330000000000041" y="-5" width="80" height="30" as="geometry" />
        </mxCell>
        <mxCell id="AqDaINTAuV95AdL_ioeB-316" value="" style="group" parent="1" vertex="1" connectable="0">
          <mxGeometry x="2086.88" y="1040" width="110" height="45" as="geometry" />
        </mxCell>
        <mxCell id="AqDaINTAuV95AdL_ioeB-317" value="" style="rounded=0;whiteSpace=wrap;html=1;" parent="AqDaINTAuV95AdL_ioeB-316" vertex="1">
          <mxGeometry width="110" height="45" as="geometry" />
        </mxCell>
        <mxCell id="AqDaINTAuV95AdL_ioeB-318" value="DetailSells" style="text;html=1;align=center;verticalAlign=middle;whiteSpace=wrap;rounded=0;fontSize=15;" parent="AqDaINTAuV95AdL_ioeB-316" vertex="1">
          <mxGeometry x="25" y="7.5" width="60" height="30" as="geometry" />
        </mxCell>
        <mxCell id="AqDaINTAuV95AdL_ioeB-319" value="" style="endArrow=classic;html=1;rounded=0;exitX=1;exitY=0.75;exitDx=0;exitDy=0;entryX=0.5;entryY=1;entryDx=0;entryDy=0;" parent="1" source="AqDaINTAuV95AdL_ioeB-317" target="AqDaINTAuV95AdL_ioeB-305" edge="1">
          <mxGeometry width="50" height="50" relative="1" as="geometry">
            <mxPoint x="2096.88" y="1085" as="sourcePoint" />
            <mxPoint x="2146.88" y="1035" as="targetPoint" />
          </mxGeometry>
        </mxCell>
        <mxCell id="AqDaINTAuV95AdL_ioeB-320" value="" style="endArrow=classic;html=1;rounded=0;entryX=0.5;entryY=1;entryDx=0;entryDy=0;exitX=0.5;exitY=0;exitDx=0;exitDy=0;" parent="1" source="AqDaINTAuV95AdL_ioeB-317" target="AqDaINTAuV95AdL_ioeB-311" edge="1">
          <mxGeometry width="50" height="50" relative="1" as="geometry">
            <mxPoint x="2139.88" y="1035" as="sourcePoint" />
            <mxPoint x="2146.88" y="1035" as="targetPoint" />
          </mxGeometry>
        </mxCell>
        <mxCell id="AqDaINTAuV95AdL_ioeB-321" value="" style="endArrow=classic;html=1;rounded=0;exitX=0.5;exitY=0;exitDx=0;exitDy=0;entryX=1;entryY=0.5;entryDx=0;entryDy=0;" parent="1" source="AqDaINTAuV95AdL_ioeB-317" target="AqDaINTAuV95AdL_ioeB-308" edge="1">
          <mxGeometry width="50" height="50" relative="1" as="geometry">
            <mxPoint x="2066.88" y="1055" as="sourcePoint" />
            <mxPoint x="2031.2199999999998" y="965.6000000000001" as="targetPoint" />
          </mxGeometry>
        </mxCell>
        <mxCell id="a-pvaFXM3P0UM7oyCH4t-2" value="" style="group" vertex="1" connectable="0" parent="1">
          <mxGeometry x="570" y="615" width="100" height="60" as="geometry" />
        </mxCell>
        <mxCell id="a-pvaFXM3P0UM7oyCH4t-3" value="" style="ellipse;whiteSpace=wrap;html=1;" vertex="1" parent="a-pvaFXM3P0UM7oyCH4t-2">
          <mxGeometry x="-50" y="-7.5" width="140" height="60" as="geometry" />
        </mxCell>
        <mxCell id="a-pvaFXM3P0UM7oyCH4t-4" value="ResponsibleUserID" style="text;html=1;align=center;verticalAlign=middle;whiteSpace=wrap;rounded=0;" vertex="1" parent="a-pvaFXM3P0UM7oyCH4t-2">
          <mxGeometry x="-15" y="5" width="70" height="35" as="geometry" />
        </mxCell>
        <mxCell id="a-pvaFXM3P0UM7oyCH4t-5" value="" style="endArrow=classic;html=1;rounded=0;exitX=1;exitY=0.5;exitDx=0;exitDy=0;entryX=0;entryY=0.5;entryDx=0;entryDy=0;" edge="1" parent="1" source="AqDaINTAuV95AdL_ioeB-114" target="a-pvaFXM3P0UM7oyCH4t-3">
          <mxGeometry width="50" height="50" relative="1" as="geometry">
            <mxPoint x="550" y="720" as="sourcePoint" />
            <mxPoint x="600" y="670" as="targetPoint" />
          </mxGeometry>
        </mxCell>
        <mxCell id="a-pvaFXM3P0UM7oyCH4t-6" value="" style="group" vertex="1" connectable="0" parent="1">
          <mxGeometry x="2170" y="720" width="80" height="50" as="geometry" />
        </mxCell>
        <mxCell id="a-pvaFXM3P0UM7oyCH4t-7" value="" style="ellipse;whiteSpace=wrap;html=1;" vertex="1" parent="a-pvaFXM3P0UM7oyCH4t-6">
          <mxGeometry x="-40" width="120" height="50" as="geometry" />
        </mxCell>
        <mxCell id="a-pvaFXM3P0UM7oyCH4t-8" value="Description" style="text;html=1;align=center;verticalAlign=middle;whiteSpace=wrap;rounded=0;" vertex="1" parent="a-pvaFXM3P0UM7oyCH4t-6">
          <mxGeometry x="-15" y="5" width="70" height="35" as="geometry" />
        </mxCell>
        <mxCell id="a-pvaFXM3P0UM7oyCH4t-10" value="" style="group" vertex="1" connectable="0" parent="1">
          <mxGeometry x="2560" y="810" width="80" height="50" as="geometry" />
        </mxCell>
        <mxCell id="a-pvaFXM3P0UM7oyCH4t-11" value="" style="ellipse;whiteSpace=wrap;html=1;" vertex="1" parent="a-pvaFXM3P0UM7oyCH4t-10">
          <mxGeometry x="-30" width="110" height="40" as="geometry" />
        </mxCell>
        <mxCell id="a-pvaFXM3P0UM7oyCH4t-12" value="UnitPrice" style="text;html=1;align=center;verticalAlign=middle;whiteSpace=wrap;rounded=0;" vertex="1" parent="a-pvaFXM3P0UM7oyCH4t-10">
          <mxGeometry x="-10" y="2.5" width="70" height="35" as="geometry" />
        </mxCell>
        <mxCell id="a-pvaFXM3P0UM7oyCH4t-14" value="" style="endArrow=classic;html=1;rounded=0;exitX=0.75;exitY=1;exitDx=0;exitDy=0;entryX=0.5;entryY=0;entryDx=0;entryDy=0;" edge="1" parent="1" source="AqDaINTAuV95AdL_ioeB-278" target="a-pvaFXM3P0UM7oyCH4t-11">
          <mxGeometry width="50" height="50" relative="1" as="geometry">
            <mxPoint x="2400" y="820" as="sourcePoint" />
            <mxPoint x="2450" y="770" as="targetPoint" />
          </mxGeometry>
        </mxCell>
        <mxCell id="a-pvaFXM3P0UM7oyCH4t-15" value="" style="group" vertex="1" connectable="0" parent="1">
          <mxGeometry x="480" y="930" width="80" height="40" as="geometry" />
        </mxCell>
        <mxCell id="a-pvaFXM3P0UM7oyCH4t-16" value="" style="ellipse;whiteSpace=wrap;html=1;" vertex="1" parent="a-pvaFXM3P0UM7oyCH4t-15">
          <mxGeometry width="80" height="40" as="geometry" />
        </mxCell>
        <mxCell id="a-pvaFXM3P0UM7oyCH4t-17" value="ID" style="text;html=1;align=center;verticalAlign=middle;whiteSpace=wrap;rounded=0;" vertex="1" parent="a-pvaFXM3P0UM7oyCH4t-15">
          <mxGeometry x="10" y="5" width="60" height="30" as="geometry" />
        </mxCell>
        <mxCell id="a-pvaFXM3P0UM7oyCH4t-18" value="" style="group" vertex="1" connectable="0" parent="1">
          <mxGeometry x="220" y="930" width="105" height="40" as="geometry" />
        </mxCell>
        <mxCell id="a-pvaFXM3P0UM7oyCH4t-19" value="" style="ellipse;whiteSpace=wrap;html=1;" vertex="1" parent="a-pvaFXM3P0UM7oyCH4t-18">
          <mxGeometry width="105" height="40" as="geometry" />
        </mxCell>
        <mxCell id="a-pvaFXM3P0UM7oyCH4t-20" value="Course" style="text;html=1;align=center;verticalAlign=middle;whiteSpace=wrap;rounded=0;" vertex="1" parent="a-pvaFXM3P0UM7oyCH4t-18">
          <mxGeometry x="13.125" y="5" width="78.75" height="30" as="geometry" />
        </mxCell>
        <mxCell id="a-pvaFXM3P0UM7oyCH4t-21" value="" style="group" vertex="1" connectable="0" parent="1">
          <mxGeometry x="350" y="930" width="120" height="40" as="geometry" />
        </mxCell>
        <mxCell id="a-pvaFXM3P0UM7oyCH4t-22" value="" style="ellipse;whiteSpace=wrap;html=1;" vertex="1" parent="a-pvaFXM3P0UM7oyCH4t-21">
          <mxGeometry y="-10" width="106.66666666666666" height="40" as="geometry" />
        </mxCell>
        <mxCell id="a-pvaFXM3P0UM7oyCH4t-23" value="Year" style="text;html=1;align=center;verticalAlign=middle;whiteSpace=wrap;rounded=0;" vertex="1" parent="a-pvaFXM3P0UM7oyCH4t-21">
          <mxGeometry x="13.330000000000041" y="-5" width="80" height="30" as="geometry" />
        </mxCell>
        <mxCell id="a-pvaFXM3P0UM7oyCH4t-24" value="" style="group" vertex="1" connectable="0" parent="1">
          <mxGeometry x="340" y="1155" width="110" height="50" as="geometry" />
        </mxCell>
        <mxCell id="a-pvaFXM3P0UM7oyCH4t-25" value="" style="ellipse;whiteSpace=wrap;html=1;" vertex="1" parent="a-pvaFXM3P0UM7oyCH4t-24">
          <mxGeometry width="110" height="50" as="geometry" />
        </mxCell>
        <mxCell id="a-pvaFXM3P0UM7oyCH4t-26" value="Group" style="text;html=1;align=center;verticalAlign=middle;whiteSpace=wrap;rounded=0;" vertex="1" parent="a-pvaFXM3P0UM7oyCH4t-24">
          <mxGeometry x="13.75" y="6.25" width="82.5" height="37.5" as="geometry" />
        </mxCell>
        <mxCell id="a-pvaFXM3P0UM7oyCH4t-27" value="" style="group" vertex="1" connectable="0" parent="1">
          <mxGeometry x="350" y="1045" width="200" height="55" as="geometry" />
        </mxCell>
        <mxCell id="a-pvaFXM3P0UM7oyCH4t-28" value="" style="rounded=0;whiteSpace=wrap;html=1;" vertex="1" parent="a-pvaFXM3P0UM7oyCH4t-27">
          <mxGeometry width="200" height="55.00000000000001" as="geometry" />
        </mxCell>
        <mxCell id="a-pvaFXM3P0UM7oyCH4t-29" value="&lt;div&gt;&lt;br&gt;&lt;/div&gt;&lt;div&gt;&lt;br&gt;&lt;/div&gt;&lt;div&gt;&lt;br&gt;&lt;/div&gt;&lt;div&gt;FormativeEnvironmentData&lt;/div&gt;&lt;div&gt;&lt;br&gt;&lt;/div&gt;&lt;div&gt;&lt;br&gt;&lt;/div&gt;&lt;div&gt;&lt;br&gt;&lt;/div&gt;" style="text;html=1;align=center;verticalAlign=middle;whiteSpace=wrap;rounded=0;fontSize=15;" vertex="1" parent="a-pvaFXM3P0UM7oyCH4t-27">
          <mxGeometry x="45.45454545454545" y="9.166666666666668" width="109.0909090909091" height="36.66666666666667" as="geometry" />
        </mxCell>
        <mxCell id="a-pvaFXM3P0UM7oyCH4t-30" value="" style="endArrow=classic;html=1;rounded=0;exitX=0.5;exitY=0;exitDx=0;exitDy=0;entryX=0.5;entryY=1;entryDx=0;entryDy=0;" edge="1" parent="1" source="a-pvaFXM3P0UM7oyCH4t-28" target="a-pvaFXM3P0UM7oyCH4t-16">
          <mxGeometry width="50" height="50" relative="1" as="geometry">
            <mxPoint x="360" y="1090" as="sourcePoint" />
            <mxPoint x="410" y="1040" as="targetPoint" />
          </mxGeometry>
        </mxCell>
        <mxCell id="a-pvaFXM3P0UM7oyCH4t-31" value="" style="endArrow=classic;html=1;rounded=0;entryX=0.5;entryY=1;entryDx=0;entryDy=0;exitX=0.5;exitY=0;exitDx=0;exitDy=0;" edge="1" parent="1" source="a-pvaFXM3P0UM7oyCH4t-28" target="a-pvaFXM3P0UM7oyCH4t-22">
          <mxGeometry width="50" height="50" relative="1" as="geometry">
            <mxPoint x="403" y="1040" as="sourcePoint" />
            <mxPoint x="410" y="1040" as="targetPoint" />
          </mxGeometry>
        </mxCell>
        <mxCell id="a-pvaFXM3P0UM7oyCH4t-32" value="" style="endArrow=classic;html=1;rounded=0;exitX=0.5;exitY=0;exitDx=0;exitDy=0;entryX=0.708;entryY=1.015;entryDx=0;entryDy=0;entryPerimeter=0;" edge="1" parent="1" source="a-pvaFXM3P0UM7oyCH4t-28" target="a-pvaFXM3P0UM7oyCH4t-19">
          <mxGeometry width="50" height="50" relative="1" as="geometry">
            <mxPoint x="330" y="1060" as="sourcePoint" />
            <mxPoint x="310" y="970" as="targetPoint" />
          </mxGeometry>
        </mxCell>
        <mxCell id="a-pvaFXM3P0UM7oyCH4t-33" value="" style="endArrow=classic;html=1;rounded=0;exitX=0.5;exitY=1;exitDx=0;exitDy=0;entryX=0.5;entryY=0;entryDx=0;entryDy=0;" edge="1" parent="1" source="a-pvaFXM3P0UM7oyCH4t-28" target="a-pvaFXM3P0UM7oyCH4t-26">
          <mxGeometry width="50" height="50" relative="1" as="geometry">
            <mxPoint x="380" y="1170" as="sourcePoint" />
            <mxPoint x="430" y="1120" as="targetPoint" />
          </mxGeometry>
        </mxCell>
        <mxCell id="a-pvaFXM3P0UM7oyCH4t-34" value="" style="group" vertex="1" connectable="0" parent="1">
          <mxGeometry x="480" y="1170" width="80" height="40" as="geometry" />
        </mxCell>
        <mxCell id="a-pvaFXM3P0UM7oyCH4t-35" value="" style="ellipse;whiteSpace=wrap;html=1;" vertex="1" parent="a-pvaFXM3P0UM7oyCH4t-34">
          <mxGeometry width="80" height="40" as="geometry" />
        </mxCell>
        <mxCell id="a-pvaFXM3P0UM7oyCH4t-36" value="IsActive" style="text;html=1;align=center;verticalAlign=middle;whiteSpace=wrap;rounded=0;" vertex="1" parent="a-pvaFXM3P0UM7oyCH4t-34">
          <mxGeometry x="5" y="2.5" width="70" height="35" as="geometry" />
        </mxCell>
        <mxCell id="a-pvaFXM3P0UM7oyCH4t-38" value="" style="endArrow=classic;html=1;rounded=0;entryX=0.25;entryY=0;entryDx=0;entryDy=0;" edge="1" parent="1" source="a-pvaFXM3P0UM7oyCH4t-28" target="a-pvaFXM3P0UM7oyCH4t-36">
          <mxGeometry width="50" height="50" relative="1" as="geometry">
            <mxPoint x="-1270" y="965" as="sourcePoint" />
            <mxPoint x="450" y="1170.7106781186549" as="targetPoint" />
          </mxGeometry>
        </mxCell>
        <mxCell id="a-pvaFXM3P0UM7oyCH4t-39" value="" style="group" vertex="1" connectable="0" parent="1">
          <mxGeometry x="1045" y="1090" width="80" height="40" as="geometry" />
        </mxCell>
        <mxCell id="a-pvaFXM3P0UM7oyCH4t-40" value="" style="ellipse;whiteSpace=wrap;html=1;" vertex="1" parent="a-pvaFXM3P0UM7oyCH4t-39">
          <mxGeometry width="80" height="40" as="geometry" />
        </mxCell>
        <mxCell id="a-pvaFXM3P0UM7oyCH4t-41" value="ID" style="text;html=1;align=center;verticalAlign=middle;whiteSpace=wrap;rounded=0;" vertex="1" parent="a-pvaFXM3P0UM7oyCH4t-39">
          <mxGeometry x="10" y="5" width="60" height="30" as="geometry" />
        </mxCell>
        <mxCell id="a-pvaFXM3P0UM7oyCH4t-42" value="" style="group" vertex="1" connectable="0" parent="1">
          <mxGeometry x="815" y="1050" width="105" height="40" as="geometry" />
        </mxCell>
        <mxCell id="a-pvaFXM3P0UM7oyCH4t-43" value="" style="ellipse;whiteSpace=wrap;html=1;" vertex="1" parent="a-pvaFXM3P0UM7oyCH4t-42">
          <mxGeometry width="105" height="40" as="geometry" />
        </mxCell>
        <mxCell id="a-pvaFXM3P0UM7oyCH4t-44" value="StateActivity" style="text;html=1;align=center;verticalAlign=middle;whiteSpace=wrap;rounded=0;" vertex="1" parent="a-pvaFXM3P0UM7oyCH4t-42">
          <mxGeometry x="13.125" y="5" width="78.75" height="30" as="geometry" />
        </mxCell>
        <mxCell id="a-pvaFXM3P0UM7oyCH4t-45" value="" style="group" vertex="1" connectable="0" parent="1">
          <mxGeometry x="915" y="1090" width="120" height="40" as="geometry" />
        </mxCell>
        <mxCell id="a-pvaFXM3P0UM7oyCH4t-46" value="" style="ellipse;whiteSpace=wrap;html=1;" vertex="1" parent="a-pvaFXM3P0UM7oyCH4t-45">
          <mxGeometry y="-10" width="106.66666666666666" height="40" as="geometry" />
        </mxCell>
        <mxCell id="a-pvaFXM3P0UM7oyCH4t-47" value="Titulo" style="text;html=1;align=center;verticalAlign=middle;whiteSpace=wrap;rounded=0;" vertex="1" parent="a-pvaFXM3P0UM7oyCH4t-45">
          <mxGeometry x="13.330000000000041" y="-5" width="80" height="30" as="geometry" />
        </mxCell>
        <mxCell id="a-pvaFXM3P0UM7oyCH4t-48" value="" style="group" vertex="1" connectable="0" parent="1">
          <mxGeometry x="780" y="1290" width="110" height="50" as="geometry" />
        </mxCell>
        <mxCell id="a-pvaFXM3P0UM7oyCH4t-49" value="" style="ellipse;whiteSpace=wrap;html=1;" vertex="1" parent="a-pvaFXM3P0UM7oyCH4t-48">
          <mxGeometry width="110" height="50" as="geometry" />
        </mxCell>
        <mxCell id="a-pvaFXM3P0UM7oyCH4t-50" value="RecordDate" style="text;html=1;align=center;verticalAlign=middle;whiteSpace=wrap;rounded=0;" vertex="1" parent="a-pvaFXM3P0UM7oyCH4t-48">
          <mxGeometry x="13.75" y="6.25" width="82.5" height="37.5" as="geometry" />
        </mxCell>
        <mxCell id="a-pvaFXM3P0UM7oyCH4t-51" value="" style="group" vertex="1" connectable="0" parent="1">
          <mxGeometry x="895" y="1205" width="190" height="45" as="geometry" />
        </mxCell>
        <mxCell id="a-pvaFXM3P0UM7oyCH4t-52" value="" style="rounded=0;whiteSpace=wrap;html=1;" vertex="1" parent="a-pvaFXM3P0UM7oyCH4t-51">
          <mxGeometry width="190" height="45.00000000000001" as="geometry" />
        </mxCell>
        <mxCell id="a-pvaFXM3P0UM7oyCH4t-53" value="&lt;div&gt;ActivityRecord&lt;/div&gt;" style="text;html=1;align=center;verticalAlign=middle;whiteSpace=wrap;rounded=0;fontSize=15;" vertex="1" parent="a-pvaFXM3P0UM7oyCH4t-51">
          <mxGeometry x="43.18181818181818" y="7.500000000000002" width="103.63636363636364" height="30.000000000000007" as="geometry" />
        </mxCell>
        <mxCell id="a-pvaFXM3P0UM7oyCH4t-54" value="" style="endArrow=classic;html=1;rounded=0;exitX=0.5;exitY=0;exitDx=0;exitDy=0;entryX=0.5;entryY=1;entryDx=0;entryDy=0;" edge="1" parent="1" source="a-pvaFXM3P0UM7oyCH4t-52" target="a-pvaFXM3P0UM7oyCH4t-40">
          <mxGeometry width="50" height="50" relative="1" as="geometry">
            <mxPoint x="925" y="1250" as="sourcePoint" />
            <mxPoint x="975" y="1200" as="targetPoint" />
          </mxGeometry>
        </mxCell>
        <mxCell id="a-pvaFXM3P0UM7oyCH4t-55" value="" style="endArrow=classic;html=1;rounded=0;entryX=0.5;entryY=1;entryDx=0;entryDy=0;exitX=0.5;exitY=0;exitDx=0;exitDy=0;" edge="1" parent="1" source="a-pvaFXM3P0UM7oyCH4t-52" target="a-pvaFXM3P0UM7oyCH4t-46">
          <mxGeometry width="50" height="50" relative="1" as="geometry">
            <mxPoint x="968" y="1200" as="sourcePoint" />
            <mxPoint x="975" y="1200" as="targetPoint" />
          </mxGeometry>
        </mxCell>
        <mxCell id="a-pvaFXM3P0UM7oyCH4t-56" value="" style="endArrow=classic;html=1;rounded=0;exitX=0.5;exitY=0;exitDx=0;exitDy=0;entryX=0.708;entryY=1.015;entryDx=0;entryDy=0;entryPerimeter=0;" edge="1" parent="1" source="a-pvaFXM3P0UM7oyCH4t-52" target="a-pvaFXM3P0UM7oyCH4t-43">
          <mxGeometry width="50" height="50" relative="1" as="geometry">
            <mxPoint x="895" y="1220" as="sourcePoint" />
            <mxPoint x="875" y="1130" as="targetPoint" />
          </mxGeometry>
        </mxCell>
        <mxCell id="a-pvaFXM3P0UM7oyCH4t-57" value="" style="endArrow=classic;html=1;rounded=0;exitX=0.5;exitY=1;exitDx=0;exitDy=0;entryX=0.5;entryY=0;entryDx=0;entryDy=0;" edge="1" parent="1" source="a-pvaFXM3P0UM7oyCH4t-52" target="a-pvaFXM3P0UM7oyCH4t-50">
          <mxGeometry width="50" height="50" relative="1" as="geometry">
            <mxPoint x="945" y="1330" as="sourcePoint" />
            <mxPoint x="995" y="1280" as="targetPoint" />
          </mxGeometry>
        </mxCell>
        <mxCell id="a-pvaFXM3P0UM7oyCH4t-58" value="" style="group" vertex="1" connectable="0" parent="1">
          <mxGeometry x="1045" y="1330" width="80" height="40" as="geometry" />
        </mxCell>
        <mxCell id="a-pvaFXM3P0UM7oyCH4t-59" value="" style="ellipse;whiteSpace=wrap;html=1;" vertex="1" parent="a-pvaFXM3P0UM7oyCH4t-58">
          <mxGeometry width="80" height="40" as="geometry" />
        </mxCell>
        <mxCell id="a-pvaFXM3P0UM7oyCH4t-60" value="IsActive" style="text;html=1;align=center;verticalAlign=middle;whiteSpace=wrap;rounded=0;" vertex="1" parent="a-pvaFXM3P0UM7oyCH4t-58">
          <mxGeometry x="5" y="2.5" width="70" height="35" as="geometry" />
        </mxCell>
        <mxCell id="a-pvaFXM3P0UM7oyCH4t-61" value="" style="endArrow=classic;html=1;rounded=0;entryX=0.25;entryY=0;entryDx=0;entryDy=0;" edge="1" parent="1" source="a-pvaFXM3P0UM7oyCH4t-52" target="a-pvaFXM3P0UM7oyCH4t-60">
          <mxGeometry width="50" height="50" relative="1" as="geometry">
            <mxPoint x="-705" y="1125" as="sourcePoint" />
            <mxPoint x="1015" y="1330.7106781186549" as="targetPoint" />
          </mxGeometry>
        </mxCell>
        <mxCell id="a-pvaFXM3P0UM7oyCH4t-63" value="" style="group" vertex="1" connectable="0" parent="1">
          <mxGeometry x="915" y="1330" width="110" height="50" as="geometry" />
        </mxCell>
        <mxCell id="a-pvaFXM3P0UM7oyCH4t-64" value="" style="ellipse;whiteSpace=wrap;html=1;" vertex="1" parent="a-pvaFXM3P0UM7oyCH4t-63">
          <mxGeometry width="110" height="50" as="geometry" />
        </mxCell>
        <mxCell id="a-pvaFXM3P0UM7oyCH4t-65" value="Observations" style="text;html=1;align=center;verticalAlign=middle;whiteSpace=wrap;rounded=0;" vertex="1" parent="a-pvaFXM3P0UM7oyCH4t-63">
          <mxGeometry x="13.75" y="6.25" width="82.5" height="37.5" as="geometry" />
        </mxCell>
        <mxCell id="a-pvaFXM3P0UM7oyCH4t-66" value="" style="endArrow=classic;html=1;rounded=0;entryX=0.5;entryY=0;entryDx=0;entryDy=0;" edge="1" parent="1" source="a-pvaFXM3P0UM7oyCH4t-52" target="a-pvaFXM3P0UM7oyCH4t-64">
          <mxGeometry width="50" height="50" relative="1" as="geometry">
            <mxPoint x="-1190" y="1115" as="sourcePoint" />
            <mxPoint x="990" y="1320.7106781186549" as="targetPoint" />
          </mxGeometry>
        </mxCell>
        <mxCell id="a-pvaFXM3P0UM7oyCH4t-67" value="" style="group" vertex="1" connectable="0" parent="1">
          <mxGeometry x="1855" y="775" width="80" height="40" as="geometry" />
        </mxCell>
        <mxCell id="a-pvaFXM3P0UM7oyCH4t-68" value="" style="ellipse;whiteSpace=wrap;html=1;" vertex="1" parent="a-pvaFXM3P0UM7oyCH4t-67">
          <mxGeometry width="80" height="40" as="geometry" />
        </mxCell>
        <mxCell id="a-pvaFXM3P0UM7oyCH4t-69" value="ID" style="text;html=1;align=center;verticalAlign=middle;whiteSpace=wrap;rounded=0;" vertex="1" parent="a-pvaFXM3P0UM7oyCH4t-67">
          <mxGeometry x="10" y="5" width="60" height="30" as="geometry" />
        </mxCell>
        <mxCell id="a-pvaFXM3P0UM7oyCH4t-70" value="" style="group" vertex="1" connectable="0" parent="1">
          <mxGeometry x="1520" y="770" width="105" height="40" as="geometry" />
        </mxCell>
        <mxCell id="a-pvaFXM3P0UM7oyCH4t-71" value="" style="ellipse;whiteSpace=wrap;html=1;" vertex="1" parent="a-pvaFXM3P0UM7oyCH4t-70">
          <mxGeometry width="105" height="40" as="geometry" />
        </mxCell>
        <mxCell id="a-pvaFXM3P0UM7oyCH4t-72" value="Quantity" style="text;html=1;align=center;verticalAlign=middle;whiteSpace=wrap;rounded=0;" vertex="1" parent="a-pvaFXM3P0UM7oyCH4t-70">
          <mxGeometry x="13.125" y="5" width="78.75" height="30" as="geometry" />
        </mxCell>
        <mxCell id="a-pvaFXM3P0UM7oyCH4t-73" value="" style="group" vertex="1" connectable="0" parent="1">
          <mxGeometry x="1785" y="730" width="120" height="40" as="geometry" />
        </mxCell>
        <mxCell id="a-pvaFXM3P0UM7oyCH4t-74" value="" style="ellipse;whiteSpace=wrap;html=1;" vertex="1" parent="a-pvaFXM3P0UM7oyCH4t-73">
          <mxGeometry y="-10" width="106.66666666666666" height="40" as="geometry" />
        </mxCell>
        <mxCell id="a-pvaFXM3P0UM7oyCH4t-75" value="Name" style="text;html=1;align=center;verticalAlign=middle;whiteSpace=wrap;rounded=0;" vertex="1" parent="a-pvaFXM3P0UM7oyCH4t-73">
          <mxGeometry x="13.330000000000041" y="-5" width="80" height="30" as="geometry" />
        </mxCell>
        <mxCell id="a-pvaFXM3P0UM7oyCH4t-76" value="" style="group" vertex="1" connectable="0" parent="1">
          <mxGeometry x="1665" y="950" width="100" height="40" as="geometry" />
        </mxCell>
        <mxCell id="a-pvaFXM3P0UM7oyCH4t-77" value="" style="ellipse;whiteSpace=wrap;html=1;" vertex="1" parent="a-pvaFXM3P0UM7oyCH4t-76">
          <mxGeometry width="100" height="40" as="geometry" />
        </mxCell>
        <mxCell id="a-pvaFXM3P0UM7oyCH4t-78" value="Cost" style="text;html=1;align=center;verticalAlign=middle;whiteSpace=wrap;rounded=0;" vertex="1" parent="a-pvaFXM3P0UM7oyCH4t-76">
          <mxGeometry x="12.5" y="5" width="75" height="30" as="geometry" />
        </mxCell>
        <mxCell id="a-pvaFXM3P0UM7oyCH4t-79" value="" style="group" vertex="1" connectable="0" parent="1">
          <mxGeometry x="1665" y="825" width="110" height="45" as="geometry" />
        </mxCell>
        <mxCell id="a-pvaFXM3P0UM7oyCH4t-80" value="" style="rounded=0;whiteSpace=wrap;html=1;" vertex="1" parent="a-pvaFXM3P0UM7oyCH4t-79">
          <mxGeometry width="110" height="45" as="geometry" />
        </mxCell>
        <mxCell id="a-pvaFXM3P0UM7oyCH4t-81" value="PurchaseItem" style="text;html=1;align=center;verticalAlign=middle;whiteSpace=wrap;rounded=0;fontSize=15;" vertex="1" parent="a-pvaFXM3P0UM7oyCH4t-79">
          <mxGeometry x="25" y="7.5" width="60" height="30" as="geometry" />
        </mxCell>
        <mxCell id="a-pvaFXM3P0UM7oyCH4t-82" value="" style="endArrow=classic;html=1;rounded=0;exitX=0.5;exitY=0;exitDx=0;exitDy=0;entryX=0.5;entryY=1;entryDx=0;entryDy=0;" edge="1" parent="1" source="a-pvaFXM3P0UM7oyCH4t-80" target="a-pvaFXM3P0UM7oyCH4t-68">
          <mxGeometry width="50" height="50" relative="1" as="geometry">
            <mxPoint x="1675" y="870" as="sourcePoint" />
            <mxPoint x="1725" y="820" as="targetPoint" />
          </mxGeometry>
        </mxCell>
        <mxCell id="a-pvaFXM3P0UM7oyCH4t-83" value="" style="endArrow=classic;html=1;rounded=0;entryX=0.5;entryY=1;entryDx=0;entryDy=0;exitX=0.5;exitY=0;exitDx=0;exitDy=0;" edge="1" parent="1" source="a-pvaFXM3P0UM7oyCH4t-80" target="a-pvaFXM3P0UM7oyCH4t-74">
          <mxGeometry width="50" height="50" relative="1" as="geometry">
            <mxPoint x="1718" y="820" as="sourcePoint" />
            <mxPoint x="1725" y="820" as="targetPoint" />
          </mxGeometry>
        </mxCell>
        <mxCell id="a-pvaFXM3P0UM7oyCH4t-84" value="" style="endArrow=classic;html=1;rounded=0;exitX=0.5;exitY=0;exitDx=0;exitDy=0;entryX=0.708;entryY=1.015;entryDx=0;entryDy=0;entryPerimeter=0;" edge="1" parent="1" source="a-pvaFXM3P0UM7oyCH4t-80" target="a-pvaFXM3P0UM7oyCH4t-71">
          <mxGeometry width="50" height="50" relative="1" as="geometry">
            <mxPoint x="1645" y="840" as="sourcePoint" />
            <mxPoint x="1625" y="750" as="targetPoint" />
          </mxGeometry>
        </mxCell>
        <mxCell id="a-pvaFXM3P0UM7oyCH4t-85" value="" style="endArrow=classic;html=1;rounded=0;exitX=0.5;exitY=1;exitDx=0;exitDy=0;entryX=0.5;entryY=0;entryDx=0;entryDy=0;" edge="1" parent="1" source="a-pvaFXM3P0UM7oyCH4t-80" target="a-pvaFXM3P0UM7oyCH4t-78">
          <mxGeometry width="50" height="50" relative="1" as="geometry">
            <mxPoint x="1695" y="950" as="sourcePoint" />
            <mxPoint x="1745" y="900" as="targetPoint" />
          </mxGeometry>
        </mxCell>
        <mxCell id="a-pvaFXM3P0UM7oyCH4t-86" value="" style="group" vertex="1" connectable="0" parent="1">
          <mxGeometry x="2550" y="610" width="80" height="40" as="geometry" />
        </mxCell>
        <mxCell id="a-pvaFXM3P0UM7oyCH4t-87" value="" style="ellipse;whiteSpace=wrap;html=1;" vertex="1" parent="a-pvaFXM3P0UM7oyCH4t-86">
          <mxGeometry width="80" height="40" as="geometry" />
        </mxCell>
        <mxCell id="a-pvaFXM3P0UM7oyCH4t-88" value="IsActive" style="text;html=1;align=center;verticalAlign=middle;whiteSpace=wrap;rounded=0;" vertex="1" parent="a-pvaFXM3P0UM7oyCH4t-86">
          <mxGeometry x="5" y="2.5" width="70" height="35" as="geometry" />
        </mxCell>
        <mxCell id="a-pvaFXM3P0UM7oyCH4t-89" value="" style="group" vertex="1" connectable="0" parent="1">
          <mxGeometry x="435" y="170" width="80" height="40" as="geometry" />
        </mxCell>
        <mxCell id="a-pvaFXM3P0UM7oyCH4t-90" value="" style="ellipse;whiteSpace=wrap;html=1;" vertex="1" parent="a-pvaFXM3P0UM7oyCH4t-89">
          <mxGeometry width="80" height="40" as="geometry" />
        </mxCell>
        <mxCell id="a-pvaFXM3P0UM7oyCH4t-91" value="ID" style="text;html=1;align=center;verticalAlign=middle;whiteSpace=wrap;rounded=0;" vertex="1" parent="a-pvaFXM3P0UM7oyCH4t-89">
          <mxGeometry x="10" y="5" width="60" height="30" as="geometry" />
        </mxCell>
        <mxCell id="a-pvaFXM3P0UM7oyCH4t-92" value="" style="group" vertex="1" connectable="0" parent="1">
          <mxGeometry x="175" y="170" width="105" height="40" as="geometry" />
        </mxCell>
        <mxCell id="a-pvaFXM3P0UM7oyCH4t-93" value="" style="ellipse;whiteSpace=wrap;html=1;" vertex="1" parent="a-pvaFXM3P0UM7oyCH4t-92">
          <mxGeometry width="105" height="40" as="geometry" />
        </mxCell>
        <mxCell id="a-pvaFXM3P0UM7oyCH4t-94" value="Quantity" style="text;html=1;align=center;verticalAlign=middle;whiteSpace=wrap;rounded=0;" vertex="1" parent="a-pvaFXM3P0UM7oyCH4t-92">
          <mxGeometry x="13.125" y="5" width="78.75" height="30" as="geometry" />
        </mxCell>
        <mxCell id="a-pvaFXM3P0UM7oyCH4t-95" value="" style="group" vertex="1" connectable="0" parent="1">
          <mxGeometry x="305" y="170" width="120" height="40" as="geometry" />
        </mxCell>
        <mxCell id="a-pvaFXM3P0UM7oyCH4t-96" value="" style="ellipse;whiteSpace=wrap;html=1;" vertex="1" parent="a-pvaFXM3P0UM7oyCH4t-95">
          <mxGeometry y="-10" width="106.66666666666666" height="40" as="geometry" />
        </mxCell>
        <mxCell id="a-pvaFXM3P0UM7oyCH4t-97" value="PlantType" style="text;html=1;align=center;verticalAlign=middle;whiteSpace=wrap;rounded=0;" vertex="1" parent="a-pvaFXM3P0UM7oyCH4t-95">
          <mxGeometry x="13.330000000000041" y="-5" width="80" height="30" as="geometry" />
        </mxCell>
        <mxCell id="a-pvaFXM3P0UM7oyCH4t-101" value="" style="group" vertex="1" connectable="0" parent="1">
          <mxGeometry x="285" y="290" width="165" height="40" as="geometry" />
        </mxCell>
        <mxCell id="a-pvaFXM3P0UM7oyCH4t-102" value="" style="rounded=0;whiteSpace=wrap;html=1;" vertex="1" parent="a-pvaFXM3P0UM7oyCH4t-101">
          <mxGeometry width="165" height="40.00000000000001" as="geometry" />
        </mxCell>
        <mxCell id="a-pvaFXM3P0UM7oyCH4t-103" value="Vegetable" style="text;html=1;align=center;verticalAlign=middle;whiteSpace=wrap;rounded=0;fontSize=15;" vertex="1" parent="a-pvaFXM3P0UM7oyCH4t-101">
          <mxGeometry x="37.5" y="6.666666666666668" width="90" height="26.66666666666667" as="geometry" />
        </mxCell>
        <mxCell id="a-pvaFXM3P0UM7oyCH4t-104" value="" style="endArrow=classic;html=1;rounded=0;exitX=0.5;exitY=0;exitDx=0;exitDy=0;entryX=0.5;entryY=1;entryDx=0;entryDy=0;" edge="1" parent="1" source="a-pvaFXM3P0UM7oyCH4t-102" target="a-pvaFXM3P0UM7oyCH4t-90">
          <mxGeometry width="50" height="50" relative="1" as="geometry">
            <mxPoint x="315" y="330" as="sourcePoint" />
            <mxPoint x="365" y="280" as="targetPoint" />
          </mxGeometry>
        </mxCell>
        <mxCell id="a-pvaFXM3P0UM7oyCH4t-105" value="" style="endArrow=classic;html=1;rounded=0;entryX=0.5;entryY=1;entryDx=0;entryDy=0;exitX=0.5;exitY=0;exitDx=0;exitDy=0;" edge="1" parent="1" source="a-pvaFXM3P0UM7oyCH4t-102" target="a-pvaFXM3P0UM7oyCH4t-96">
          <mxGeometry width="50" height="50" relative="1" as="geometry">
            <mxPoint x="358" y="280" as="sourcePoint" />
            <mxPoint x="365" y="280" as="targetPoint" />
          </mxGeometry>
        </mxCell>
        <mxCell id="a-pvaFXM3P0UM7oyCH4t-106" value="" style="endArrow=classic;html=1;rounded=0;exitX=0.5;exitY=0;exitDx=0;exitDy=0;entryX=0.708;entryY=1.015;entryDx=0;entryDy=0;entryPerimeter=0;" edge="1" parent="1" source="a-pvaFXM3P0UM7oyCH4t-102" target="a-pvaFXM3P0UM7oyCH4t-93">
          <mxGeometry width="50" height="50" relative="1" as="geometry">
            <mxPoint x="285" y="300" as="sourcePoint" />
            <mxPoint x="265" y="210" as="targetPoint" />
          </mxGeometry>
        </mxCell>
        <mxCell id="a-pvaFXM3P0UM7oyCH4t-108" value="" style="group" vertex="1" connectable="0" parent="1">
          <mxGeometry x="490" y="355" width="80" height="40" as="geometry" />
        </mxCell>
        <mxCell id="a-pvaFXM3P0UM7oyCH4t-109" value="" style="ellipse;whiteSpace=wrap;html=1;" vertex="1" parent="a-pvaFXM3P0UM7oyCH4t-108">
          <mxGeometry width="80" height="40" as="geometry" />
        </mxCell>
        <mxCell id="a-pvaFXM3P0UM7oyCH4t-110" value="IsActive" style="text;html=1;align=center;verticalAlign=middle;whiteSpace=wrap;rounded=0;" vertex="1" parent="a-pvaFXM3P0UM7oyCH4t-108">
          <mxGeometry x="5" y="2.5" width="70" height="35" as="geometry" />
        </mxCell>
        <mxCell id="a-pvaFXM3P0UM7oyCH4t-111" value="" style="endArrow=classic;html=1;rounded=0;entryX=0.25;entryY=0;entryDx=0;entryDy=0;" edge="1" parent="1" source="a-pvaFXM3P0UM7oyCH4t-102" target="a-pvaFXM3P0UM7oyCH4t-110">
          <mxGeometry width="50" height="50" relative="1" as="geometry">
            <mxPoint x="-1315" y="205" as="sourcePoint" />
            <mxPoint x="405" y="410.71067811865476" as="targetPoint" />
          </mxGeometry>
        </mxCell>
        <mxCell id="a-pvaFXM3P0UM7oyCH4t-112" value="" style="group" vertex="1" connectable="0" parent="1">
          <mxGeometry x="370" y="402.5" width="110" height="50" as="geometry" />
        </mxCell>
        <mxCell id="a-pvaFXM3P0UM7oyCH4t-113" value="" style="ellipse;whiteSpace=wrap;html=1;" vertex="1" parent="a-pvaFXM3P0UM7oyCH4t-112">
          <mxGeometry width="110" height="50" as="geometry" />
        </mxCell>
        <mxCell id="a-pvaFXM3P0UM7oyCH4t-114" value="Observations" style="text;html=1;align=center;verticalAlign=middle;whiteSpace=wrap;rounded=0;" vertex="1" parent="a-pvaFXM3P0UM7oyCH4t-112">
          <mxGeometry x="13.75" y="6.25" width="82.5" height="37.5" as="geometry" />
        </mxCell>
        <mxCell id="a-pvaFXM3P0UM7oyCH4t-115" value="" style="endArrow=classic;html=1;rounded=0;entryX=0.5;entryY=0;entryDx=0;entryDy=0;" edge="1" parent="1" source="a-pvaFXM3P0UM7oyCH4t-102" target="a-pvaFXM3P0UM7oyCH4t-113">
          <mxGeometry width="50" height="50" relative="1" as="geometry">
            <mxPoint x="-1800" y="195" as="sourcePoint" />
            <mxPoint x="380" y="400.71067811865476" as="targetPoint" />
          </mxGeometry>
        </mxCell>
        <mxCell id="a-pvaFXM3P0UM7oyCH4t-116" value="Has" style="shape=rhombus;perimeter=rhombusPerimeter;whiteSpace=wrap;html=1;align=center;" vertex="1" parent="1">
          <mxGeometry x="1250" y="860" width="90" height="40" as="geometry" />
        </mxCell>
        <mxCell id="a-pvaFXM3P0UM7oyCH4t-119" value="" style="edgeStyle=entityRelationEdgeStyle;fontSize=12;html=1;endArrow=ERzeroToMany;endFill=1;rounded=0;entryX=1;entryY=0.5;entryDx=0;entryDy=0;exitX=0;exitY=0.5;exitDx=0;exitDy=0;" edge="1" parent="1" source="a-pvaFXM3P0UM7oyCH4t-116" target="AqDaINTAuV95AdL_ioeB-196">
          <mxGeometry width="100" height="100" relative="1" as="geometry">
            <mxPoint x="1230" y="940" as="sourcePoint" />
            <mxPoint x="1330" y="840" as="targetPoint" />
          </mxGeometry>
        </mxCell>
        <mxCell id="a-pvaFXM3P0UM7oyCH4t-120" value="" style="edgeStyle=entityRelationEdgeStyle;fontSize=12;html=1;endArrow=ERmandOne;rounded=0;exitX=1;exitY=0.5;exitDx=0;exitDy=0;entryX=0;entryY=0.5;entryDx=0;entryDy=0;" edge="1" parent="1" source="a-pvaFXM3P0UM7oyCH4t-116" target="AqDaINTAuV95AdL_ioeB-104">
          <mxGeometry width="100" height="100" relative="1" as="geometry">
            <mxPoint x="1480" y="820" as="sourcePoint" />
            <mxPoint x="1580" y="720" as="targetPoint" />
          </mxGeometry>
        </mxCell>
        <mxCell id="a-pvaFXM3P0UM7oyCH4t-122" value="" style="group;rotation=90;" vertex="1" connectable="0" parent="1">
          <mxGeometry x="860" y="970" width="80" height="40" as="geometry" />
        </mxCell>
        <mxCell id="AqDaINTAuV95AdL_ioeB-205" value="" style="ellipse;whiteSpace=wrap;html=1;" parent="a-pvaFXM3P0UM7oyCH4t-122" vertex="1">
          <mxGeometry width="80" height="40" as="geometry" />
        </mxCell>
        <mxCell id="AqDaINTAuV95AdL_ioeB-206" value="Sex" style="text;html=1;align=center;verticalAlign=middle;whiteSpace=wrap;rounded=0;" parent="a-pvaFXM3P0UM7oyCH4t-122" vertex="1">
          <mxGeometry x="10" y="5" width="60" height="30" as="geometry" />
        </mxCell>
        <mxCell id="a-pvaFXM3P0UM7oyCH4t-123" value="Has" style="shape=rhombus;perimeter=rhombusPerimeter;whiteSpace=wrap;html=1;align=center;" vertex="1" parent="1">
          <mxGeometry x="700" y="795" width="90" height="40" as="geometry" />
        </mxCell>
        <mxCell id="a-pvaFXM3P0UM7oyCH4t-124" value="" style="edgeStyle=entityRelationEdgeStyle;fontSize=12;html=1;endArrow=ERmandOne;rounded=0;entryX=1;entryY=0.5;entryDx=0;entryDy=0;exitX=0;exitY=0.5;exitDx=0;exitDy=0;" edge="1" parent="1" source="a-pvaFXM3P0UM7oyCH4t-123" target="AqDaINTAuV95AdL_ioeB-114">
          <mxGeometry width="100" height="100" relative="1" as="geometry">
            <mxPoint x="540" y="860" as="sourcePoint" />
            <mxPoint x="640" y="760" as="targetPoint" />
          </mxGeometry>
        </mxCell>
        <mxCell id="a-pvaFXM3P0UM7oyCH4t-125" value="" style="edgeStyle=entityRelationEdgeStyle;fontSize=12;html=1;endArrow=ERzeroToMany;endFill=1;rounded=0;exitX=1;exitY=0.5;exitDx=0;exitDy=0;entryX=0;entryY=0.5;entryDx=0;entryDy=0;" edge="1" parent="1" source="a-pvaFXM3P0UM7oyCH4t-123" target="AqDaINTAuV95AdL_ioeB-196">
          <mxGeometry width="100" height="100" relative="1" as="geometry">
            <mxPoint x="950" y="950" as="sourcePoint" />
            <mxPoint x="1050" y="850" as="targetPoint" />
          </mxGeometry>
        </mxCell>
        <mxCell id="a-pvaFXM3P0UM7oyCH4t-126" value="Has" style="shape=rhombus;perimeter=rhombusPerimeter;whiteSpace=wrap;html=1;align=center;" vertex="1" parent="1">
          <mxGeometry x="920" y="180" width="90" height="40" as="geometry" />
        </mxCell>
        <mxCell id="a-pvaFXM3P0UM7oyCH4t-128" value="" style="edgeStyle=entityRelationEdgeStyle;fontSize=12;html=1;endArrow=ERmandOne;rounded=0;entryX=1;entryY=0.5;entryDx=0;entryDy=0;exitX=0;exitY=0.5;exitDx=0;exitDy=0;" edge="1" parent="1" source="a-pvaFXM3P0UM7oyCH4t-126" target="AqDaINTAuV95AdL_ioeB-54">
          <mxGeometry width="100" height="100" relative="1" as="geometry">
            <mxPoint x="840" y="350" as="sourcePoint" />
            <mxPoint x="960" y="240" as="targetPoint" />
          </mxGeometry>
        </mxCell>
        <mxCell id="a-pvaFXM3P0UM7oyCH4t-129" value="" style="edgeStyle=entityRelationEdgeStyle;fontSize=12;html=1;endArrow=ERzeroToMany;endFill=1;rounded=0;exitX=1;exitY=0.5;exitDx=0;exitDy=0;" edge="1" parent="1" source="a-pvaFXM3P0UM7oyCH4t-126" target="AqDaINTAuV95AdL_ioeB-1">
          <mxGeometry width="100" height="100" relative="1" as="geometry">
            <mxPoint x="730" y="600" as="sourcePoint" />
            <mxPoint x="1090" y="340" as="targetPoint" />
          </mxGeometry>
        </mxCell>
        <mxCell id="a-pvaFXM3P0UM7oyCH4t-130" value="Manage" style="shape=rhombus;perimeter=rhombusPerimeter;whiteSpace=wrap;html=1;align=center;" vertex="1" parent="1">
          <mxGeometry x="1325" y="442.5" width="90" height="40" as="geometry" />
        </mxCell>
        <mxCell id="a-pvaFXM3P0UM7oyCH4t-131" value="" style="edgeStyle=entityRelationEdgeStyle;fontSize=12;html=1;endArrow=ERmandOne;rounded=0;entryX=1;entryY=0.5;entryDx=0;entryDy=0;exitX=0;exitY=0.5;exitDx=0;exitDy=0;" edge="1" parent="1" source="a-pvaFXM3P0UM7oyCH4t-130" target="AqDaINTAuV95AdL_ioeB-1">
          <mxGeometry width="100" height="100" relative="1" as="geometry">
            <mxPoint x="1210" y="570" as="sourcePoint" />
            <mxPoint x="1310" y="470" as="targetPoint" />
          </mxGeometry>
        </mxCell>
        <mxCell id="a-pvaFXM3P0UM7oyCH4t-132" value="" style="edgeStyle=entityRelationEdgeStyle;fontSize=12;html=1;endArrow=ERzeroToMany;endFill=1;rounded=0;entryX=0;entryY=0.5;entryDx=0;entryDy=0;exitX=1;exitY=0.5;exitDx=0;exitDy=0;" edge="1" parent="1" source="a-pvaFXM3P0UM7oyCH4t-130" target="AqDaINTAuV95AdL_ioeB-242">
          <mxGeometry width="100" height="100" relative="1" as="geometry">
            <mxPoint x="1420" y="520" as="sourcePoint" />
            <mxPoint x="1520" y="420" as="targetPoint" />
          </mxGeometry>
        </mxCell>
        <mxCell id="a-pvaFXM3P0UM7oyCH4t-134" value="Manage" style="shape=rhombus;perimeter=rhombusPerimeter;whiteSpace=wrap;html=1;align=center;" vertex="1" parent="1">
          <mxGeometry x="750" y="600" width="90" height="40" as="geometry" />
        </mxCell>
        <mxCell id="a-pvaFXM3P0UM7oyCH4t-135" value="" style="edgeStyle=entityRelationEdgeStyle;fontSize=12;html=1;endArrow=ERzeroToMany;endFill=1;rounded=0;entryX=1;entryY=0.5;entryDx=0;entryDy=0;exitX=0;exitY=0.5;exitDx=0;exitDy=0;" edge="1" parent="1" source="a-pvaFXM3P0UM7oyCH4t-134" target="AqDaINTAuV95AdL_ioeB-114">
          <mxGeometry width="100" height="100" relative="1" as="geometry">
            <mxPoint x="610" y="800" as="sourcePoint" />
            <mxPoint x="710" y="700" as="targetPoint" />
          </mxGeometry>
        </mxCell>
        <mxCell id="a-pvaFXM3P0UM7oyCH4t-136" value="" style="edgeStyle=entityRelationEdgeStyle;fontSize=12;html=1;endArrow=ERmandOne;rounded=0;entryX=0;entryY=0.75;entryDx=0;entryDy=0;exitX=1;exitY=0.5;exitDx=0;exitDy=0;" edge="1" parent="1" source="a-pvaFXM3P0UM7oyCH4t-134" target="AqDaINTAuV95AdL_ioeB-1">
          <mxGeometry width="100" height="100" relative="1" as="geometry">
            <mxPoint x="900" y="630" as="sourcePoint" />
            <mxPoint x="1000" y="530" as="targetPoint" />
          </mxGeometry>
        </mxCell>
        <mxCell id="a-pvaFXM3P0UM7oyCH4t-137" value="Manage" style="shape=rhombus;perimeter=rhombusPerimeter;whiteSpace=wrap;html=1;align=center;" vertex="1" parent="1">
          <mxGeometry x="1400" y="635" width="90" height="40" as="geometry" />
        </mxCell>
        <mxCell id="a-pvaFXM3P0UM7oyCH4t-138" value="" style="edgeStyle=entityRelationEdgeStyle;fontSize=12;html=1;endArrow=ERmandOne;rounded=0;entryX=1;entryY=0.75;entryDx=0;entryDy=0;exitX=0;exitY=0.5;exitDx=0;exitDy=0;" edge="1" parent="1" source="a-pvaFXM3P0UM7oyCH4t-137" target="AqDaINTAuV95AdL_ioeB-1">
          <mxGeometry width="100" height="100" relative="1" as="geometry">
            <mxPoint x="1300" y="650" as="sourcePoint" />
            <mxPoint x="1400" y="550" as="targetPoint" />
          </mxGeometry>
        </mxCell>
        <mxCell id="a-pvaFXM3P0UM7oyCH4t-139" value="" style="edgeStyle=entityRelationEdgeStyle;fontSize=12;html=1;endArrow=ERoneToMany;rounded=0;exitX=1;exitY=0.5;exitDx=0;exitDy=0;entryX=0;entryY=0.5;entryDx=0;entryDy=0;" edge="1" parent="1" source="a-pvaFXM3P0UM7oyCH4t-137" target="AqDaINTAuV95AdL_ioeB-263">
          <mxGeometry width="100" height="100" relative="1" as="geometry">
            <mxPoint x="1620" y="760" as="sourcePoint" />
            <mxPoint x="1720" y="660" as="targetPoint" />
          </mxGeometry>
        </mxCell>
        <mxCell id="a-pvaFXM3P0UM7oyCH4t-140" value="" style="group" vertex="1" connectable="0" parent="1">
          <mxGeometry x="1910" y="975" width="105" height="40" as="geometry" />
        </mxCell>
        <mxCell id="AqDaINTAuV95AdL_ioeB-308" value="" style="ellipse;whiteSpace=wrap;html=1;" parent="a-pvaFXM3P0UM7oyCH4t-140" vertex="1">
          <mxGeometry width="105" height="40" as="geometry" />
        </mxCell>
        <mxCell id="AqDaINTAuV95AdL_ioeB-309" value="PriceUnit" style="text;html=1;align=center;verticalAlign=middle;whiteSpace=wrap;rounded=0;" parent="a-pvaFXM3P0UM7oyCH4t-140" vertex="1">
          <mxGeometry x="11.24499999999989" y="5" width="78.75" height="30" as="geometry" />
        </mxCell>
        <mxCell id="a-pvaFXM3P0UM7oyCH4t-141" value="Has" style="shape=rhombus;perimeter=rhombusPerimeter;whiteSpace=wrap;html=1;align=center;" vertex="1" parent="1">
          <mxGeometry x="1970" y="770" width="90" height="40" as="geometry" />
        </mxCell>
        <mxCell id="a-pvaFXM3P0UM7oyCH4t-142" value="" style="edgeStyle=entityRelationEdgeStyle;fontSize=12;html=1;endArrow=ERmandOne;rounded=0;entryX=1;entryY=0.5;entryDx=0;entryDy=0;exitX=0.5;exitY=0;exitDx=0;exitDy=0;" edge="1" parent="1" source="a-pvaFXM3P0UM7oyCH4t-141" target="AqDaINTAuV95AdL_ioeB-263">
          <mxGeometry width="100" height="100" relative="1" as="geometry">
            <mxPoint x="2060" y="730" as="sourcePoint" />
            <mxPoint x="2160" y="630" as="targetPoint" />
          </mxGeometry>
        </mxCell>
        <mxCell id="a-pvaFXM3P0UM7oyCH4t-143" value="" style="edgeStyle=entityRelationEdgeStyle;fontSize=12;html=1;endArrow=ERoneToMany;rounded=0;exitX=0.5;exitY=1;exitDx=0;exitDy=0;entryX=1;entryY=0.25;entryDx=0;entryDy=0;" edge="1" parent="1" source="a-pvaFXM3P0UM7oyCH4t-141" target="AqDaINTAuV95AdL_ioeB-317">
          <mxGeometry width="100" height="100" relative="1" as="geometry">
            <mxPoint x="1970" y="990" as="sourcePoint" />
            <mxPoint x="2070" y="890" as="targetPoint" />
          </mxGeometry>
        </mxCell>
        <mxCell id="a-pvaFXM3P0UM7oyCH4t-144" value="Has" style="shape=rhombus;perimeter=rhombusPerimeter;whiteSpace=wrap;html=1;align=center;" vertex="1" parent="1">
          <mxGeometry x="1660" y="640" width="90" height="40" as="geometry" />
        </mxCell>
        <mxCell id="a-pvaFXM3P0UM7oyCH4t-145" value="" style="edgeStyle=entityRelationEdgeStyle;fontSize=12;html=1;endArrow=ERmandOne;rounded=0;entryX=1;entryY=0.5;entryDx=0;entryDy=0;exitX=0.5;exitY=0;exitDx=0;exitDy=0;" edge="1" parent="1" source="a-pvaFXM3P0UM7oyCH4t-144" target="AqDaINTAuV95AdL_ioeB-242">
          <mxGeometry width="100" height="100" relative="1" as="geometry">
            <mxPoint x="1620" y="580" as="sourcePoint" />
            <mxPoint x="1720" y="480" as="targetPoint" />
          </mxGeometry>
        </mxCell>
        <mxCell id="a-pvaFXM3P0UM7oyCH4t-146" value="" style="edgeStyle=entityRelationEdgeStyle;fontSize=12;html=1;endArrow=ERoneToMany;rounded=0;exitX=0.5;exitY=1;exitDx=0;exitDy=0;entryX=0;entryY=0.5;entryDx=0;entryDy=0;" edge="1" parent="1" source="a-pvaFXM3P0UM7oyCH4t-144" target="a-pvaFXM3P0UM7oyCH4t-80">
          <mxGeometry width="100" height="100" relative="1" as="geometry">
            <mxPoint x="1760" y="880" as="sourcePoint" />
            <mxPoint x="1860" y="780" as="targetPoint" />
          </mxGeometry>
        </mxCell>
        <mxCell id="a-pvaFXM3P0UM7oyCH4t-149" value="Has" style="shape=rhombus;perimeter=rhombusPerimeter;whiteSpace=wrap;html=1;align=center;" vertex="1" parent="1">
          <mxGeometry x="2260" y="920" width="90" height="40" as="geometry" />
        </mxCell>
        <mxCell id="a-pvaFXM3P0UM7oyCH4t-150" value="" style="edgeStyle=entityRelationEdgeStyle;fontSize=12;html=1;endArrow=ERoneToMany;rounded=0;entryX=0;entryY=0.5;entryDx=0;entryDy=0;exitX=0.5;exitY=0;exitDx=0;exitDy=0;" edge="1" parent="1" source="a-pvaFXM3P0UM7oyCH4t-149" target="AqDaINTAuV95AdL_ioeB-278">
          <mxGeometry width="100" height="100" relative="1" as="geometry">
            <mxPoint x="2330" y="970" as="sourcePoint" />
            <mxPoint x="2430" y="870" as="targetPoint" />
          </mxGeometry>
        </mxCell>
        <mxCell id="a-pvaFXM3P0UM7oyCH4t-151" value="" style="edgeStyle=entityRelationEdgeStyle;fontSize=12;html=1;endArrow=ERoneToMany;rounded=0;entryX=1;entryY=0.5;entryDx=0;entryDy=0;exitX=0.5;exitY=1;exitDx=0;exitDy=0;" edge="1" parent="1" source="a-pvaFXM3P0UM7oyCH4t-149" target="AqDaINTAuV95AdL_ioeB-317">
          <mxGeometry width="100" height="100" relative="1" as="geometry">
            <mxPoint x="2240" y="1130" as="sourcePoint" />
            <mxPoint x="2340" y="1030" as="targetPoint" />
          </mxGeometry>
        </mxCell>
        <mxCell id="a-pvaFXM3P0UM7oyCH4t-154" value="Has" style="shape=rhombus;perimeter=rhombusPerimeter;whiteSpace=wrap;html=1;align=center;" vertex="1" parent="1">
          <mxGeometry x="230" y="452.5" width="90" height="40" as="geometry" />
        </mxCell>
        <mxCell id="a-pvaFXM3P0UM7oyCH4t-155" value="" style="edgeStyle=entityRelationEdgeStyle;fontSize=12;html=1;endArrow=ERoneToMany;rounded=0;entryX=0;entryY=0.5;entryDx=0;entryDy=0;exitX=0.5;exitY=0;exitDx=0;exitDy=0;" edge="1" parent="1" source="a-pvaFXM3P0UM7oyCH4t-154" target="a-pvaFXM3P0UM7oyCH4t-102">
          <mxGeometry width="100" height="100" relative="1" as="geometry">
            <mxPoint x="160" y="410" as="sourcePoint" />
            <mxPoint x="260" y="310" as="targetPoint" />
          </mxGeometry>
        </mxCell>
        <mxCell id="a-pvaFXM3P0UM7oyCH4t-156" value="" style="edgeStyle=entityRelationEdgeStyle;fontSize=12;html=1;endArrow=ERmandOne;rounded=0;exitX=0.5;exitY=1;exitDx=0;exitDy=0;entryX=0;entryY=0.5;entryDx=0;entryDy=0;" edge="1" parent="1" source="a-pvaFXM3P0UM7oyCH4t-154" target="AqDaINTAuV95AdL_ioeB-114">
          <mxGeometry width="100" height="100" relative="1" as="geometry">
            <mxPoint x="320" y="640" as="sourcePoint" />
            <mxPoint x="420" y="540" as="targetPoint" />
          </mxGeometry>
        </mxCell>
        <mxCell id="a-pvaFXM3P0UM7oyCH4t-157" value="Has" style="shape=rhombus;perimeter=rhombusPerimeter;whiteSpace=wrap;html=1;align=center;" vertex="1" parent="1">
          <mxGeometry x="610" y="1030" width="90" height="40" as="geometry" />
        </mxCell>
        <mxCell id="a-pvaFXM3P0UM7oyCH4t-158" value="" style="edgeStyle=entityRelationEdgeStyle;fontSize=12;html=1;endArrow=ERmandOne;rounded=0;entryX=1;entryY=1;entryDx=0;entryDy=0;exitX=0.5;exitY=0;exitDx=0;exitDy=0;" edge="1" parent="1" source="a-pvaFXM3P0UM7oyCH4t-157" target="AqDaINTAuV95AdL_ioeB-114">
          <mxGeometry width="100" height="100" relative="1" as="geometry">
            <mxPoint x="610" y="980" as="sourcePoint" />
            <mxPoint x="710" y="880" as="targetPoint" />
          </mxGeometry>
        </mxCell>
        <mxCell id="a-pvaFXM3P0UM7oyCH4t-159" value="" style="edgeStyle=entityRelationEdgeStyle;fontSize=12;html=1;endArrow=ERoneToMany;rounded=0;entryX=1;entryY=0.5;entryDx=0;entryDy=0;exitX=0.5;exitY=1;exitDx=0;exitDy=0;" edge="1" parent="1" source="a-pvaFXM3P0UM7oyCH4t-157" target="a-pvaFXM3P0UM7oyCH4t-28">
          <mxGeometry width="100" height="100" relative="1" as="geometry">
            <mxPoint x="620" y="1190" as="sourcePoint" />
            <mxPoint x="720" y="1090" as="targetPoint" />
          </mxGeometry>
        </mxCell>
        <mxCell id="a-pvaFXM3P0UM7oyCH4t-160" value="Has" style="shape=rhombus;perimeter=rhombusPerimeter;whiteSpace=wrap;html=1;align=center;" vertex="1" parent="1">
          <mxGeometry x="695" y="935" width="90" height="40" as="geometry" />
        </mxCell>
        <mxCell id="a-pvaFXM3P0UM7oyCH4t-161" value="" style="edgeStyle=entityRelationEdgeStyle;fontSize=12;html=1;endArrow=ERoneToMany;rounded=0;entryX=0;entryY=0.5;entryDx=0;entryDy=0;exitX=0.5;exitY=1;exitDx=0;exitDy=0;" edge="1" parent="1" source="a-pvaFXM3P0UM7oyCH4t-160" target="a-pvaFXM3P0UM7oyCH4t-52">
          <mxGeometry width="100" height="100" relative="1" as="geometry">
            <mxPoint x="830" y="1310" as="sourcePoint" />
            <mxPoint x="930" y="1210" as="targetPoint" />
          </mxGeometry>
        </mxCell>
        <mxCell id="a-pvaFXM3P0UM7oyCH4t-162" value="" style="edgeStyle=entityRelationEdgeStyle;fontSize=12;html=1;endArrow=ERmandOne;rounded=0;entryX=1;entryY=0.75;entryDx=0;entryDy=0;exitX=0;exitY=0.5;exitDx=0;exitDy=0;" edge="1" parent="1" source="a-pvaFXM3P0UM7oyCH4t-160" target="AqDaINTAuV95AdL_ioeB-114">
          <mxGeometry width="100" height="100" relative="1" as="geometry">
            <mxPoint x="630" y="990" as="sourcePoint" />
            <mxPoint x="730" y="890" as="targetPoint" />
          </mxGeometry>
        </mxCell>
        <mxCell id="a-pvaFXM3P0UM7oyCH4t-163" value="Manage" style="shape=rhombus;perimeter=rhombusPerimeter;whiteSpace=wrap;html=1;align=center;" vertex="1" parent="1">
          <mxGeometry x="1260" y="1160" width="90" height="40" as="geometry" />
        </mxCell>
        <mxCell id="a-pvaFXM3P0UM7oyCH4t-164" value="" style="edgeStyle=entityRelationEdgeStyle;fontSize=12;html=1;endArrow=ERoneToMany;rounded=0;entryX=1;entryY=0.5;entryDx=0;entryDy=0;exitX=0;exitY=0.5;exitDx=0;exitDy=0;" edge="1" parent="1" source="a-pvaFXM3P0UM7oyCH4t-163" target="a-pvaFXM3P0UM7oyCH4t-52">
          <mxGeometry width="100" height="100" relative="1" as="geometry">
            <mxPoint x="1170" y="1370" as="sourcePoint" />
            <mxPoint x="1270" y="1270" as="targetPoint" />
          </mxGeometry>
        </mxCell>
        <mxCell id="a-pvaFXM3P0UM7oyCH4t-165" value="" style="edgeStyle=entityRelationEdgeStyle;fontSize=12;html=1;endArrow=ERmandOne;rounded=0;entryX=1;entryY=1;entryDx=0;entryDy=0;" edge="1" parent="1" target="AqDaINTAuV95AdL_ioeB-1">
          <mxGeometry width="100" height="100" relative="1" as="geometry">
            <mxPoint x="1350" y="1180" as="sourcePoint" />
            <mxPoint x="1560" y="1170" as="targetPoint" />
          </mxGeometry>
        </mxCell>
      </root>
    </mxGraphModel>
  </diagram>
</mxfile>
